<svg id="Group_448" data-name="Group 448" xmlns="http://www.w3.org/2000/svg" width="38.64" height="47.473" viewBox="0 0 38.64 47.473">
  <g id="Group_110" data-name="Group 110">
    <path id="Path_76" data-name="Path 76" d="M546.854,226.313H523.126a7.465,7.465,0,0,1-7.456-7.456V186.3a7.465,7.465,0,0,1,7.456-7.456h23.727a7.465,7.465,0,0,1,7.456,7.456v32.56A7.465,7.465,0,0,1,546.854,226.313Zm-23.727-44.16a4.149,4.149,0,0,0-4.144,4.144v32.56A4.148,4.148,0,0,0,523.126,223h23.727A4.149,4.149,0,0,0,551,218.856V186.3a4.149,4.149,0,0,0-4.144-4.144H523.126Z" transform="translate(-515.67 -178.84)" fill="#0fa89d"/>
  </g>
  <g id="Group_111" data-name="Group 111" transform="translate(8.832 18.768)">
    <path id="Path_77" data-name="Path 77" d="M602.648,362.367a10.488,10.488,0,1,1,10.488-10.488A10.5,10.5,0,0,1,602.648,362.367Zm0-17.664a7.176,7.176,0,1,0,7.176,7.176A7.184,7.184,0,0,0,602.648,344.7Z" transform="translate(-592.16 -341.39)" fill="#0fa89d"/>
  </g>
  <rect id="Rectangle_21" data-name="Rectangle 21" width="33.12" height="3.313" transform="translate(2.76 11.04)" fill="#0fa89d"/>
</svg>
