<svg xmlns="http://www.w3.org/2000/svg" width="26" height="26" viewBox="0 0 26 26">
  <g id="Group_448" data-name="Group 448" transform="translate(-426 -712)">
    <path id="Path_157" class='cls-1' data-name="Path 157" d="M22.192,3.808A13,13,0,0,0,3.808,22.192,13,13,0,0,0,22.192,3.808ZM21.115,21.115A11.477,11.477,0,1,1,4.885,4.885a11.477,11.477,0,1,1,16.23,16.23Z" transform="translate(426 712)" fill="#c3cdd6"/>
    <path id="Path_158" class='cls-1' data-name="Path 158" d="M68.6,58.578A10.025,10.025,0,1,0,78.629,68.6,10.037,10.037,0,0,0,68.6,58.578Zm0,1.523a8.509,8.509,0,0,1,7.452,4.413,20.616,20.616,0,0,0-14.9,0A8.509,8.509,0,0,1,68.6,60.1ZM60.848,72.086a3.33,3.33,0,0,1,4.32,4.294A8.555,8.555,0,0,1,60.848,72.086Zm5.763,4.784a4.854,4.854,0,0,0-6.262-6.224,8.534,8.534,0,0,1,.01-4.124,19.038,19.038,0,0,1,16.488,0,8.533,8.533,0,0,1,.01,4.124A4.854,4.854,0,0,0,70.6,76.869a8.537,8.537,0,0,1-3.985,0Zm5.428-.49a3.33,3.33,0,0,1,4.32-4.294A8.555,8.555,0,0,1,72.039,76.38Z" transform="translate(370.397 656.397)" fill="#c3cdd6"/>
    <path id="Path_159" class='cls-1' data-name="Path 159" d="M212.83,210.39a2.44,2.44,0,1,0-2.44,2.44A2.443,2.443,0,0,0,212.83,210.39Zm-2.44.917a.917.917,0,1,1,.917-.917A.918.918,0,0,1,210.39,211.307Z" transform="translate(228.61 514.61)" fill="#c3cdd6"/>
  </g>
</svg>
