<svg xmlns="http://www.w3.org/2000/svg" id="bell" width="21.168" height="23.092" viewBox="0 0 21.168 23.092">
    <defs>
        <style>
            .cls-1{fill:#fff}
        </style>
    </defs>
    <path id="Path_222" d="M369.45 33.1a.722.722 0 0 1-.722-.722 10.278 10.278 0 0 0-3.029-7.314.722.722 0 1 1 1.021-1.021 11.714 11.714 0 0 1 3.451 8.335.722.722 0 0 1-.721.722zm0 0" class="cls-1" data-name="Path 222" transform="translate(-349.004 -22.761)"/>
    <path id="Path_223" d="M.722 33.123A.722.722 0 0 1 0 32.4a11.708 11.708 0 0 1 3.452-8.334.722.722 0 1 1 1.021 1.021 10.271 10.271 0 0 0-3.03 7.313.722.722 0 0 1-.721.723zm0 0" class="cls-1" data-name="Path 223" transform="translate(0 -22.78)"/>
    <path id="Path_224" d="M158.276 420.33a3.612 3.612 0 0 1-3.608-3.608.722.722 0 1 1 1.443 0 2.165 2.165 0 0 0 4.33 0 .722.722 0 1 1 1.443 0 3.612 3.612 0 0 1-3.608 3.608zm0 0" class="cls-1" data-name="Path 224" transform="translate(-147.692 -397.238)"/>
    <path id="Path_225" d="M38.892 81.319H23.016a1.684 1.684 0 0 1-1.095-2.964 6.448 6.448 0 0 0 2.3-4.938v-2.682a6.735 6.735 0 0 1 13.471 0v2.683a6.447 6.447 0 0 0 2.288 4.931 1.683 1.683 0 0 1-1.085 2.97zm-7.938-15.876a5.3 5.3 0 0 0-5.292 5.292v2.683a7.886 7.886 0 0 1-2.8 6.033.24.24 0 0 0-.087.185.243.243 0 0 0 .241.24h15.876a.243.243 0 0 0 .24-.24.237.237 0 0 0-.085-.183 7.888 7.888 0 0 1-2.8-6.035v-2.683a5.3 5.3 0 0 0-5.293-5.292zm0 0" class="cls-1" data-name="Path 225" transform="translate(-20.37 -61.113)"/>
    <path id="Path_226" d="M219.39 4.33a.722.722 0 0 1-.722-.722V.722a.722.722 0 1 1 1.443 0v2.886a.722.722 0 0 1-.721.722zm0 0" class="cls-1" data-name="Path 226" transform="translate(-208.806)"/>
</svg>
