<svg xmlns="http://www.w3.org/2000/svg" id="close-2" width="24.57" height="24.57" viewBox="0 0 24.57 24.57">
    <defs>
        <style>
            .cls-1{fill:#033e46}
        </style>
    </defs>
    <path id="Path_223" d="M12.285 24.57A12.285 12.285 0 1 1 24.57 12.285 12.3 12.3 0 0 1 12.285 24.57zm0-22.815a10.53 10.53 0 1 0 10.53 10.53 10.542 10.542 0 0 0-10.53-10.53zm0 0" class="cls-1" data-name="Path 223"/>
    <path id="Path_224" d="M155.939 156.818a.874.874 0 0 1-.62-.257l-8.775-8.775a.877.877 0 1 1 1.241-1.241l8.775 8.775a.878.878 0 0 1-.62 1.5zm0 0" class="cls-1" data-name="Path 224" transform="translate(-139.266 -139.267)"/>
    <path id="Path_225" d="M147.164 156.816a.878.878 0 0 1-.62-1.5l8.775-8.775a.877.877 0 0 1 1.241 1.241l-8.775 8.775a.874.874 0 0 1-.621.259zm0 0" class="cls-1" data-name="Path 225" transform="translate(-139.266 -139.266)"/>
</svg>
