<svg xmlns="http://www.w3.org/2000/svg" width="8.38" height="8.379" viewBox="0 0 8.38 8.379">
    <defs>
        <style>
            .cls-1{fill:#fff}
        </style>
    </defs>
    <g id="Group_756" data-name="Group 756" transform="translate(-445 -699.658)">
        <path id="Path_253" d="M8.165 7.141L1.6.574a.733.733 0 0 0-1.037 0L.215.92a.733.733 0 0 0 0 1.037l6.567 6.567a.733.733 0 0 0 1.037 0l.346-.346a.732.732 0 0 0 0-1.037zm0 0" class="cls-1" data-name="Path 253" transform="translate(445 699.299)"/>
        <path id="Path_254" d="M6.782.577L.215 7.144a.733.733 0 0 0 0 1.037l.346.346a.733.733 0 0 0 1.037 0L8.165 1.96a.733.733 0 0 0 0-1.037L7.819.578A.733.733 0 0 0 6.782.577zm0 0" class="cls-1" data-name="Path 254" transform="translate(445 699.296)"/>
    </g>
</svg>
