<svg xmlns="http://www.w3.org/2000/svg" width="49.205" height="40.367" viewBox="0 0 49.205 40.367">
  <g id="Group_284" data-name="Group 284" transform="translate(-430.673 -361.152)">
    <g id="Group_287" data-name="Group 287" transform="translate(430.673 361.152)">
      <g id="Group_110" data-name="Group 110" transform="translate(3.796)">
        <path id="Path_76" data-name="Path 76" d="M436.2,388.01v-20.8a6.544,6.544,0,0,1,6.536-6.536h28.542a6.544,6.544,0,0,1,6.536,6.536v20.8a6.544,6.544,0,0,1-6.536,6.536H442.735A6.545,6.545,0,0,1,436.2,388.01Zm38.714-20.8a3.637,3.637,0,0,0-3.633-3.633H442.737a3.636,3.636,0,0,0-3.632,3.632v20.8a3.637,3.637,0,0,0,3.633,3.636h28.541a3.637,3.637,0,0,0,3.633-3.633v-20.8Z" transform="translate(-436.201 -360.672)" fill="#0fa89d"/>
      </g>
      <path id="Path_150" data-name="Path 150" d="M466.115,548.17v1.177a2.5,2.5,0,0,1-2.662,2.3H419.572a2.5,2.5,0,0,1-2.662-2.3V548.17H436.4v.382a1.357,1.357,0,0,0,1.356,1.356h7.52a1.356,1.356,0,0,0,1.356-1.356v-.382Z" transform="translate(-416.91 -511.28)" fill="#0fa89d"/>
    </g>
  </g>
</svg>
