<svg xmlns="http://www.w3.org/2000/svg" width="12.354" height="11.839" viewBox="0 0 12.354 11.839">
    <defs>
        <style>
            .cls-1{fill:#e1e6ea}
        </style>
    </defs>
    <path id="star" d="M12.322 4.966a.655.655 0 0 0-.565-.451l-3.566-.324-1.41-3.3a.657.657 0 0 0-1.208 0l-1.41 3.3L.6 4.515a.657.657 0 0 0-.376 1.149l2.7 2.364-.795 3.5a.656.656 0 0 0 .976.709L6.177 10.4l3.075 1.838a.657.657 0 0 0 .977-.709l-.795-3.5 2.7-2.363a.657.657 0 0 0 .188-.7zm0 0" class="cls-1" transform="translate(0 -.492)"/>
</svg>
