<svg xmlns="http://www.w3.org/2000/svg" id="Group_603" width="26.222" height="26.222" data-name="Group 603" viewBox="0 0 26.222 26.222">
    <defs>
        <style>
            .cls-1{fill:#fff}
        </style>
    </defs>
    <path id="Path_258" d="M24.118 17.211a14.888 14.888 0 0 1-4.675-.745 2.137 2.137 0 0 0-2.078.438l-2.948 2.226a16.294 16.294 0 0 1-7.327-7.324l2.16-2.871a2.119 2.119 0 0 0 .521-2.147A14.91 14.91 0 0 1 9.024 2.1 2.106 2.106 0 0 0 6.92 0H2.1A2.106 2.106 0 0 0 0 2.1a24.145 24.145 0 0 0 24.118 24.122 2.106 2.106 0 0 0 2.1-2.1v-4.8a2.107 2.107 0 0 0-2.1-2.111z" class="cls-1" data-name="Path 258"/>
</svg>
