<svg xmlns="http://www.w3.org/2000/svg" id="Phone" width="29.989" height="47.76" viewBox="0 0 29.989 47.76">
    <defs>
        <style>
            .cls-1{fill:#0fa89d}
        </style>
    </defs>
    <g id="Group_108" data-name="Group 108">
        <path id="Path_75" d="M583.486 237.88H568.5a7.511 7.511 0 0 1-7.5-7.5v-32.758a7.51 7.51 0 0 1 7.5-7.5h14.985a7.511 7.511 0 0 1 7.5 7.5v32.756a7.513 7.513 0 0 1-7.499 7.502zM568.5 193.453a4.173 4.173 0 0 0-4.169 4.169v32.756a4.173 4.173 0 0 0 4.169 4.169h14.985a4.173 4.173 0 0 0 4.169-4.169v-32.756a4.173 4.173 0 0 0-4.169-4.169z" class="cls-1" data-name="Path 75" transform="translate(-561 -190.12)"/>
    </g>
    <g id="Group_109" data-name="Group 109" transform="translate(12.218 34.432)">
        <ellipse id="Ellipse_16" cx="2.776" cy="2.776" class="cls-1" data-name="Ellipse 16" rx="2.776" ry="2.776"/>
    </g>
</svg>
