<svg xmlns="http://www.w3.org/2000/svg" id="photograph" width="47.696" height="43.038" viewBox="0 0 47.696 43.038">
    <defs>
        <style>
            .cls-1{fill:#0fa89d}
        </style>
    </defs>
    <g id="Group_130" data-name="Group 130">
        <g id="Group_129" data-name="Group 129">
            <path id="Path_78" d="M142.645 157a11.645 11.645 0 1 0 11.645 11.645A11.658 11.658 0 0 0 142.645 157zm0 19.563a7.918 7.918 0 1 1 7.918-7.918 7.927 7.927 0 0 1-7.918 7.918z" class="cls-1" data-name="Path 78" transform="translate(-118.796 -144.703)"/>
            <path id="Path_79" d="M42.107 31.707h-6.854a.577.577 0 0 1-.513-.31l-1.9-3.985-.016-.033A4.282 4.282 0 0 0 28.976 25H18.853A4.282 4.282 0 0 0 15 27.38l-.016.033-1.9 3.985a.577.577 0 0 1-.513.31H5.589A5.6 5.6 0 0 0 0 37.3v25.149a5.6 5.6 0 0 0 5.589 5.589h36.518a5.6 5.6 0 0 0 5.593-5.589V37.3a5.6 5.6 0 0 0-5.593-5.593zm1.863 30.742a1.865 1.865 0 0 1-1.863 1.863H5.589a1.865 1.865 0 0 1-1.863-1.863V37.3a1.865 1.865 0 0 1 1.863-1.863h6.987a4.282 4.282 0 0 0 3.851-2.38l.016-.033 1.9-3.985a.576.576 0 0 1 .513-.31h10.12a.576.576 0 0 1 .513.31l1.9 3.985.016.033a4.282 4.282 0 0 0 3.851 2.38h6.854a1.865 1.865 0 0 1 1.86 1.863z" class="cls-1" data-name="Path 79" transform="translate(0 -25)"/>
        </g>
    </g>
</svg>
