<svg xmlns="http://www.w3.org/2000/svg" id="sofa" width="28.065" height="28.065" viewBox="0 0 28.065 28.065">
    <defs>
        <style>
            .cls-1{fill:#c3cdd6}
        </style>
    </defs>
    <g id="Group_333" data-name="Group 333">
        <path id="Path_162" d="M27.949 10.726A3.911 3.911 0 0 0 25 7.883c-.117-.025-.234-.02-.351-.034A10.072 10.072 0 0 0 14.813 0h-1.559a10.074 10.074 0 0 0-9.84 7.849A3.844 3.844 0 0 0 0 11.694a3.9 3.9 0 0 0 1.559 3.1v7.032a3.108 3.108 0 0 0 1.559 2.685v1.213a2.339 2.339 0 0 0 4.678 0v-.78h12.475v.78a2.339 2.339 0 0 0 4.678 0v-1.211a3.108 3.108 0 0 0 1.559-2.685V14.8a3.9 3.9 0 0 0 1.441-4.074zm-14.7-9.167h1.559a8.519 8.519 0 0 1 8.269 6.411 3.831 3.831 0 0 0-2.808 3.724v3.9H7.8V11.86a4.051 4.051 0 0 0-2.811-3.895 8.52 8.52 0 0 1 8.264-6.406zm8.579 16.371a.78.78 0 0 1-.78.78H7.016a.78.78 0 1 1 0-1.559h14.033a.78.78 0 0 1 .779.779zm-15.592 7.8a.78.78 0 1 1-1.559 0v-.78h1.56zm17.151 0a.78.78 0 1 1-1.559 0v-.78h1.559zm1.947-12.02a.779.779 0 0 0-.388.674v7.449a1.561 1.561 0 0 1-1.559 1.559H4.677a1.561 1.561 0 0 1-1.559-1.559V14.38a.781.781 0 0 0-.388-.674 2.313 2.313 0 0 1-1.172-2.012A2.341 2.341 0 0 1 4.3 9.388a2.452 2.452 0 0 1 1.937 2.472v3.875a2.333 2.333 0 0 0 .78 4.534h14.032a2.333 2.333 0 0 0 .78-4.534v-4.041a2.339 2.339 0 1 1 3.506 2.012z" class="cls-1" data-name="Path 162"/>
    </g>
</svg>
