<svg xmlns="http://www.w3.org/2000/svg" width="10.284" height="9.855" viewBox="0 0 10.284 9.855">
    <defs>
        <style>
            .cls-1{fill:#fff}
        </style>
    </defs>
    <path id="star" d="M10.257 4.216a.546.546 0 0 0-.471-.376l-2.968-.27L5.645.824a.547.547 0 0 0-1.005 0L3.466 3.571.5 3.841a.547.547 0 0 0-.31.956l2.24 1.968-.661 2.914a.546.546 0 0 0 .813.591l2.56-1.53L7.7 10.27a.547.547 0 0 0 .813-.591l-.66-2.914L10.1 4.8a.547.547 0 0 0 .157-.584zm0 0" class="cls-1" transform="translate(0 -.492)"/>
</svg>
