<svg xmlns="http://www.w3.org/2000/svg" width="27.494" height="31.627" viewBox="0 0 27.494 31.627">
    <defs>
        <style>
            .cls-1{fill:#c3cdd6}
        </style>
    </defs>
    <g id="woman" transform="translate(-42.202 -6.208)">
        <g id="Group_339" data-name="Group 339" transform="translate(47.57 9.071)">
            <g id="Group_338" data-name="Group 338">
                <path id="Path_172" d="M124.619 123.3l-3.025-.534a.739.739 0 0 0-.74.312l-1.2 1.76a7.291 7.291 0 0 1-4.253 2.975.739.739 0 1 0 .361 1.433 8.767 8.767 0 0 0 5.114-3.577l.928-1.364 2.554.451a.739.739 0 1 0 .257-1.455z" class="cls-1" data-name="Path 172" transform="translate(-114.846 -122.753)"/>
            </g>
        </g>
        <g id="Group_341" data-name="Group 341" transform="translate(61.241 34.083)">
            <g id="Group_340" data-name="Group 340">
                <path id="Path_173" d="M301.314 461.82a.784.784 0 0 0-.042-.138.741.741 0 0 0-.4-.4.778.778 0 0 0-.138-.042.731.731 0 0 0-.289 0 .743.743 0 0 0-.138.042.731.731 0 0 0-.128.068.756.756 0 0 0-.112.092.71.71 0 0 0-.092.112.752.752 0 0 0-.068.127.786.786 0 0 0-.042.138.742.742 0 0 0-.015.145.728.728 0 0 0 .015.144.75.75 0 0 0 .042.138.734.734 0 0 0 .068.128.72.72 0 0 0 .2.2.735.735 0 0 0 .128.068.753.753 0 0 0 .138.042.729.729 0 0 0 .144.015.743.743 0 0 0 .145-.015.788.788 0 0 0 .138-.042.756.756 0 0 0 .127-.068.709.709 0 0 0 .112-.092.759.759 0 0 0 .092-.112.729.729 0 0 0 .067-.128.745.745 0 0 0 .043-.138.726.726 0 0 0 .014-.144.74.74 0 0 0-.009-.14z" class="cls-1" data-name="Path 173" transform="translate(-299.85 -461.225)"/>
            </g>
        </g>
        <g id="Group_343" data-name="Group 343" transform="translate(42.202 6.208)">
            <g id="Group_342" data-name="Group 342">
                <path id="Path_174" d="M69.446 106.012a.741.741 0 0 0-.581-.179 2.533 2.533 0 0 1-1.858-.418 1.256 1.256 0 0 1-.115-1.15 30.051 30.051 0 0 0 .57-5.132c0-4.2-.623-7.411-1.9-9.829-1.863-3.515-5.089-5.3-9.587-5.3s-7.723 1.782-9.587 5.3c-1.282 2.418-1.9 5.633-1.9 9.829a27.973 27.973 0 0 0 .528 5.132 1.259 1.259 0 0 1-.114 1.149c-.42.475-1.512.462-1.86.42a.739.739 0 0 0-.831.733c0 1.119.642 2.67 3.612 3.85v4.477a.739.739 0 0 0 .739.739h18.783a.739.739 0 0 0 .739-.739v-4.477c2.97-1.18 3.612-2.73 3.612-3.85a.739.739 0 0 0-.25-.555zm-4.84 8.142H47.292v-.8h11.62a.739.739 0 0 0 0-1.478h-11.62v-2.357a1.387 1.387 0 0 1 1.386-1.386h4.893a2.459 2.459 0 0 0 4.757 0h4.893a1.387 1.387 0 0 1 1.386 1.386l-.001 4.635zm-10.193-9.665a6.137 6.137 0 0 1-4.606-5.948V96.22a11.871 11.871 0 0 0 6.158-4.391l.579.1a6.7 6.7 0 0 1 5.545 6.61 6.137 6.137 0 0 1-4.606 5.948.739.739 0 0 0-.555.716v2.31a.981.981 0 0 1-1.961 0V105.2a.739.739 0 0 0-.553-.711zM66 108.844a2.869 2.869 0 0 0-2.782-2.184h-4.81v-.9a7.616 7.616 0 0 0 5.16-7.214 8.179 8.179 0 0 0-6.768-8.07l-1.044-.184a.739.739 0 0 0-.74.312l-.065.1a10.4 10.4 0 0 1-6.065 4.242.739.739 0 0 0-.558.716v2.883a7.616 7.616 0 0 0 5.16 7.214v.9h-4.81a2.869 2.869 0 0 0-2.782 2.184 4.456 4.456 0 0 1-2.006-1.533 3.157 3.157 0 0 0 2.11-.91 2.6 2.6 0 0 0 .447-2.486 26.725 26.725 0 0 1-.485-4.78c0-3.949.567-6.938 1.732-9.137 1.609-3.036 4.318-4.512 8.281-4.512s6.667 1.474 8.276 4.515c1.166 2.2 1.732 5.188 1.732 9.137a28.25 28.25 0 0 1-.527 4.78 2.6 2.6 0 0 0 .444 2.483 3.158 3.158 0 0 0 2.105.913A4.457 4.457 0 0 1 66 108.844z" class="cls-1" data-name="Path 174" transform="translate(-42.202 -84.005)"/>
            </g>
        </g>
        <g id="Group_345" data-name="Group 345" transform="translate(51.031 19.305)">
            <g id="Group_344" data-name="Group 344">
                <path id="Path_175" d="M165.174 261.464a.739.739 0 0 0-1.045 0 .838.838 0 0 1-1.184 0 .739.739 0 1 0-1.045 1.045 2.315 2.315 0 0 0 3.275 0 .739.739 0 0 0-.001-1.045z" class="cls-1" data-name="Path 175" transform="translate(-161.683 -261.247)"/>
            </g>
        </g>
        <g id="Group_347" data-name="Group 347" transform="translate(57.16 19.305)">
            <g id="Group_346" data-name="Group 346">
                <path id="Path_176" d="M248.111 261.464a.739.739 0 0 0-1.045 0 .837.837 0 0 1-1.184 0 .739.739 0 0 0-1.045 1.045 2.315 2.315 0 0 0 3.275 0 .739.739 0 0 0-.001-1.045z" class="cls-1" data-name="Path 176" transform="translate(-244.62 -261.248)"/>
            </g>
        </g>
        <g id="Group_349" data-name="Group 349" transform="translate(54.096 23.527)">
            <g id="Group_348" data-name="Group 348">
                <path id="Path_177" d="M206.642 318.592a.739.739 0 0 0-1.045 0 .839.839 0 0 1-1.184 0 .739.739 0 0 0-1.045 1.045 2.318 2.318 0 0 0 3.275 0 .739.739 0 0 0-.001-1.045z" class="cls-1" data-name="Path 177" transform="translate(-203.151 -318.376)"/>
            </g>
        </g>
    </g>
</svg>
