<svg id="facebook-logo" xmlns="http://www.w3.org/2000/svg" width="18.678" height="34.547" viewBox="0 0 18.678 34.547">
  <defs>
    <style>
      .cls-1 {
        fill: #fff;
      }
    </style>
  </defs>
  <path id="Path_69" data-name="Path 69" class="cls-1" d="M40.051.007,35.571,0c-5.033,0-8.286,3.337-8.286,8.5v3.92h-4.5a.7.7,0,0,0-.7.7v5.68a.7.7,0,0,0,.7.7h4.5V33.842a.7.7,0,0,0,.7.7h5.877a.7.7,0,0,0,.7-.7V19.511h5.267a.7.7,0,0,0,.7-.7l0-5.68a.7.7,0,0,0-.7-.7H34.572V9.1c0-1.6.381-2.408,2.461-2.408h3.018a.7.7,0,0,0,.7-.7V.712A.7.7,0,0,0,40.051.007Z" transform="translate(-22.077)"/>
</svg>
