<svg xmlns="http://www.w3.org/2000/svg" xmlns:xlink="http://www.w3.org/1999/xlink" width="1920" height="526" viewBox="0 0 1920 526">
  <defs>
    <linearGradient id="linear-gradient" x1="0.726" y1="0.028" x2="0.076" y2="1.09" gradientUnits="objectBoundingBox">
      <stop offset="0" stop-color="#003e46"/>
      <stop offset="1" stop-color="#003e46"/>
    </linearGradient>
    <clipPath id="clip-path">
      <rect id="Rectangle_76" data-name="Rectangle 76" width="1920" height="525" fill="url(#linear-gradient)"/>
    </clipPath>
  </defs>
  <g id="Group_448" data-name="Group 448" transform="translate(-14179 1122)">
    <rect id="Rectangle_27" data-name="Rectangle 27" width="1920" height="525" transform="translate(14179 -1122)" fill="url(#linear-gradient)"/>
    <path id="Rectangle_25" data-name="Rectangle 25" d="M0,0H974a0,0,0,0,1,0,0V0A525,525,0,0,1,449,525H0a0,0,0,0,1,0,0V0A0,0,0,0,1,0,0Z" transform="translate(14179 -1121)" fill="#002f36"/>
    <g id="Mask_Group_1" data-name="Mask Group 1" transform="translate(14179 -1121)" clip-path="url(#clip-path)">
      <g id="Maskot" transform="translate(786.931 -65.639)">
        <path id="Path_190" data-name="Path 190" d="M464.319,501.928H450.785l-72.8,131.181,8.11,9.784Z" transform="translate(-19.335 -33.333)" fill="#005a64"/>
        <rect id="Rectangle_77" data-name="Rectangle 77" width="14.129" height="140.161" transform="translate(495.586 456.705)" fill="#005a64"/>
        <path id="Path_191" data-name="Path 191" d="M261.1,369.485s-37.254-71.42-4.211-141.873c38.325-81.725,143.978-87.952,208.04-66.361,49.962,16.845,97.759,66.45,105.1,124.165,11.213,88.235,13.594,142.014-68.02,235.242l-.833-58.451-39.5,111.836-22.619-83.3L404.7,552.652,363.759,424.707Z" transform="translate(-6.556 -0.018)" fill="#00a89d"/>
        <path id="Path_192" data-name="Path 192" d="M509.342,171.343s72.164,52.2,69.538,120.005l16.54,13.913S604.787,224.377,509.342,171.343Z" transform="translate(-31.792 -1.984)" fill="#009f91"/>
        <path id="Path_193" data-name="Path 193" d="M439.063,154.508S356,135.2,295.435,180.549s-52.99,115.08-50.133,136.709c0,0-8.05-70.624,43.013-117.312C329.765,162.045,365.88,152.893,439.063,154.508Z" transform="translate(-6.572 0)" fill="#07ad9e"/>
        <circle id="Ellipse_50" data-name="Ellipse 50" cx="37.797" cy="37.797" r="37.797" transform="translate(269.101 240.593)" fill="#059183"/>
        <path id="Path_194" data-name="Path 194" d="M403.364,531.486s64.746-36.822,82.543-102.788L389.629,488.57Z" transform="translate(-20.44 -26.389)" fill="#009f91"/>
        <ellipse id="Ellipse_51" data-name="Ellipse 51" cx="24.427" cy="16.079" rx="24.427" ry="16.079" transform="translate(322.329 593.481)" fill="#005a64"/>
        <ellipse id="Ellipse_52" data-name="Ellipse 52" cx="24.427" cy="16.079" rx="24.427" ry="16.079" transform="translate(488.227 593.481)" fill="#005a64"/>
        <path id="Path_195" data-name="Path 195" d="M526.875,323.447s61.747-43.69,91.859-11.719,13.832,127.148-27.9,175.5l4.412-58.526-21,41.867-.2-67.313-21.882,14.263,5.089-34.114Z" transform="translate(-33.455 -14.187)" fill="#00a59b"/>
        <path id="Path_196" data-name="Path 196" d="M526.678,324.89s63.548.536,65.639,49.017c0,0,9.754-11.1,11.108-21.279,0,0,4.606,25.178-.818,45.706,0,0,10.9-3.638,13.951-13.564,0,0,2.411,65.661-16.48,91.859A164.673,164.673,0,0,0,623.4,427.887C631.728,399,639.615,282.286,526.678,324.89Z" transform="translate(-33.436 -15.667)" fill="#009f91"/>
        <path id="Path_197" data-name="Path 197" d="M486.388,428.706c-1.183,2.716-18.839,52.782-86.955,88.994l-4.806-15.037Z" transform="translate(-20.914 -26.389)" fill="#00867b"/>
        <path id="Path_198" data-name="Path 198" d="M283.8,438.756s-64.612,29.523-88.778-26.555A12.3,12.3,0,0,1,201.8,395.87l2.679-1.049-.074-6.987a14.456,14.456,0,0,1,17.552-14.278h0s1.629-44.627,13.683-60.989c0,0,18.065,65.036,38.429,72.677Z" transform="translate(-1.89 -15.376)" fill="#00a59b"/>
        <circle id="Ellipse_53" data-name="Ellipse 53" cx="35.409" cy="35.409" r="35.409" transform="translate(269.101 242.706)" fill="#fff"/>
        <circle id="Ellipse_54" data-name="Ellipse 54" cx="38.749" cy="38.749" r="38.749" transform="translate(373.326 233.51)" fill="#059183"/>
        <circle id="Ellipse_55" data-name="Ellipse 55" cx="37.306" cy="37.306" r="37.306" transform="translate(372.812 233.51)" fill="#fff"/>
        <path id="Path_199" data-name="Path 199" d="M526.678,323.41s127.193-46.934,91.6,116.94c0,0,27.834-64.367,9.873-112.759C606.082,268.12,526.678,323.41,526.678,323.41Z" transform="translate(-33.436 -14.187)" fill="#00867b"/>
        <path id="Path_200" data-name="Path 200" d="M572.413,318.6s23.646,5.439,28.489,28.251c0,0,3.177-4.814,3.661-15.03,0,0,16.265,23.43,11.689,45.654,0,0,11.875-15.945,9.5-29.858C625.753,347.62,630.88,304.1,572.413,318.6Z" transform="translate(-37.773 -15.667)" fill="#00867b"/>
        <path id="Path_201" data-name="Path 201" d="M560.187,384.269,553.4,425.511l21.882-14.263,1.406,67.916s-6.518,10.863-9.762,16.056c-3.051,4.881-15.4,21.607-15.4,21.607l8.348-77.082-19.881,2.56Z" transform="translate(-34.699 -22.175)" fill="#009f91"/>
        <path id="Path_202" data-name="Path 202" d="M253.937,351.283s-85.014,79.612,3.72,88.086l34.136-38.5S270.164,395.672,253.937,351.283Z" transform="translate(-4.092 -19.047)" fill="#00867b"/>
        <path id="Path_203" data-name="Path 203" d="M224.878,373.564s4.152-1.927,5.364-9.047-2.2-18.638,8.318-51.941C238.561,312.576,226.679,326.385,224.878,373.564Z" transform="translate(-4.817 -15.377)" fill="#41bdac"/>
        <path id="Path_204" data-name="Path 204" d="M339.2,514.622c-10.915-3.14-71.658-24.077-77.744-83.6-5.6-54.85,32.343-106.739,106.352-108.711,66.442-1.771,108.279,43.109,108.25,83.868-.03,42.484-69.977,89.946-123.971,95.437C352.088,501.624,339.336,514.667,339.2,514.622Z" transform="translate(-8.234 -16.295)" fill="#f9a11e"/>
        <path id="Path_205" data-name="Path 205" d="M492.361,409.533c-.03,26.138-26.473,54.114-59.389,73.072,30.937-25.833,42.946-38.169,47.737-70.11,3.051-20.357-4.94-39.345-11.2-54.865C484.266,372.844,492.361,391.587,492.361,409.533Z" transform="translate(-24.55 -19.649)" fill="#ed9022"/>
        <path id="Path_206" data-name="Path 206" d="M339.21,514.641c-10.922-3.162-71.666-24.084-77.737-83.6-5.58-54.486,31.845-106.025,104.857-108.659-21.138,5.617-66.6,21.443-84.515,57.246C258.155,426.964,280.707,487.394,339.21,514.641Z" transform="translate(-8.235 -16.307)" fill="#fab952"/>
        <path id="Path_207" data-name="Path 207" d="M339.21,514.641c-10.922-3.162-71.666-24.084-77.737-83.6-5.58-54.486,31.845-106.025,104.857-108.659-21.138,5.617-64.567,17.671-82.484,53.474C260.186,423.191,280.707,487.394,339.21,514.641Z" transform="translate(-8.235 -16.307)" fill="#fab952"/>
        <g id="Group_444" data-name="Group 444" transform="translate(174.086 213.097)">
          <circle id="Ellipse_56" data-name="Ellipse 56" cx="59.56" cy="59.56" r="59.56" transform="translate(57.442 8.471)" fill="#fff" opacity="0.2"/>
          <path id="Path_208" data-name="Path 208" d="M256.269,302.62a50.661,50.661,0,0,1,50.274-59.143,47.088,47.088,0,0,0-43.281,77.8A50.947,50.947,0,0,1,256.269,302.62Z" transform="translate(-181.402 -221.852)" fill="#fff" opacity="0.53"/>
          <g id="Group_441" data-name="Group 441" transform="translate(48.99)">
            <path id="Path_209" data-name="Path 209" d="M296.183,355.7a68.175,68.175,0,1,1,11.034-.908A67.159,67.159,0,0,1,296.183,355.7Zm.149-119.128a51.116,51.116,0,1,0,8.147,101.561,51.119,51.119,0,0,0-8.147-101.561Z" transform="translate(-228.208 -219.663)" fill="#005a64"/>
          </g>
          <g id="Group_442" data-name="Group 442" transform="translate(0.013 108.085)">
            <path id="Path_210" data-name="Path 210" d="M182.943,459.2a8.849,8.849,0,0,1-7.18-14.018l73.488-102.424a8.855,8.855,0,1,1,14.382,10.335L190.145,455.51A8.84,8.84,0,0,1,182.943,459.2Z" transform="translate(-174.1 -339.072)" fill="#005a64"/>
          </g>
          <g id="Group_443" data-name="Group 443" transform="translate(48.995 0.014)">
            <path id="Path_211" data-name="Path 211" d="M349.65,282.442A50.531,50.531,0,0,0,333.958,253.2a51.126,51.126,0,0,1-72.186,72.268,51.1,51.1,0,0,0,87.878-43.028Zm-61.405-58.861a67.63,67.63,0,0,1,50.669,11.882,66.768,66.768,0,0,1,6.964,5.766,68,68,0,1,0-95.921,96.3,67.954,67.954,0,0,1,38.288-113.949Z" transform="translate(-228.214 -219.678)" fill="#00867b"/>
          </g>
          <path id="Path_212" data-name="Path 212" d="M244.823,349.877l1.324,2.254-71.777,101.4a8.682,8.682,0,0,1,1.391-7.329C178.649,442.1,244.823,349.877,244.823,349.877Z" transform="translate(-174.086 -232.011)" fill="#00867b"/>
        </g>
        <path id="Path_213" data-name="Path 213" d="M483.746,606.679l-7.686-28.3,47.187-83.533Z" transform="translate(-28.636 -32.661)" fill="#009f91"/>
        <path id="Path_214" data-name="Path 214" d="M416.138,572.808l39.307-46.443-34.36,61.911Z" transform="translate(-22.954 -35.65)" fill="#009f91"/>
        <g id="Group_445" data-name="Group 445" transform="translate(391.555 254.023)">
          <circle id="Ellipse_57" data-name="Ellipse 57" cx="16.793" cy="16.793" r="16.793" fill="#009f91"/>
          <circle id="Ellipse_58" data-name="Ellipse 58" cx="8.527" cy="8.527" r="8.527" transform="translate(8.266 8.266)" fill="#02544b"/>
        </g>
        <g id="Group_446" data-name="Group 446" transform="translate(286.363 253.561)">
          <circle id="Ellipse_59" data-name="Ellipse 59" cx="15.647" cy="15.647" r="15.647" transform="translate(2.5 8.906)" fill="#009f91"/>
          <circle id="Ellipse_60" data-name="Ellipse 60" cx="7.946" cy="7.946" r="7.946" transform="translate(10.201 16.607)" fill="#02544b"/>
          <circle id="Ellipse_61" data-name="Ellipse 61" cx="6.198" cy="6.198" r="6.198" transform="translate(0 8.348)" fill="#fff"/>
          <circle id="Ellipse_62" data-name="Ellipse 62" cx="3.311" cy="3.311" r="3.311" transform="translate(6.89 22.47)" fill="#fff"/>
          <circle id="Ellipse_63" data-name="Ellipse 63" cx="6.198" cy="6.198" r="6.198" transform="translate(103.391)" fill="#fff"/>
          <circle id="Ellipse_64" data-name="Ellipse 64" cx="3.311" cy="3.311" r="3.311" transform="translate(110.281 14.122)" fill="#fff"/>
        </g>
        <path id="Path_215" data-name="Path 215" d="M561.186,384.269l-10.662,47.708,19.814-7.485-2.418,70.721,9.769-16.056-1.406-67.916L554.4,425.5Z" transform="translate(-35.697 -22.175)" fill="#00867b"/>
        <path id="Path_216" data-name="Path 216" d="M200,420.127s11.942-7.649,20.342,0c0,0,0-15.253-15.29-16.689Z" transform="translate(-2.457 -23.993)" fill="#00a59b"/>
        <path id="Path_217" data-name="Path 217" d="M402.636,397.676s12.783,59.337-10.454,104.217c0,0-10.55,4.115-30.543,6.882l24.025-25.729,13.742-57.291Z" transform="translate(-17.786 -23.447)" fill="#ed9022"/>
        <path id="Path_218" data-name="Path 218" d="M212.376,401.025s12.827-8.861,21.041,2.8c0,0,2.969-19.747-9.717-23.869Z" transform="translate(-3.631 -21.766)" fill="#00a59b"/>
        <path id="Path_219" data-name="Path 219" d="M205.561,401.166h0s1.235-12.18,8.8-16.823c5.268-3.237,11.8-2.351,15.1.357a10.351,10.351,0,0,0-11.272-5.022c-9.985,1.734-12.894,9.806-12.7,14.509C205.658,398.524,205.561,401.166,205.561,401.166Z" transform="translate(-2.977 -21.721)" fill="#41bdac"/>
        <path id="Path_220" data-name="Path 220" d="M211.573,405.521a14.875,14.875,0,0,0-5.506-1.942,6.756,6.756,0,0,0-3.192.327c-2.277.8-6.339,2.775-7.835,7.135-2.12,6.19-.61,9.085,1.57,13.251h0s-3.333-10.067,5.283-16.666C204.795,405.387,211.573,405.521,211.573,405.521Z" transform="translate(-1.89 -24)" fill="#41bdac"/>
        <path id="Path_221" data-name="Path 221" d="M374.824,506.588s28.757-37.79,27.812-108.912c0,0-7.723,65.7-41,111.1Z" transform="translate(-17.786 -23.447)" fill="#d6802a"/>
      </g>
    </g>
  </g>
</svg>
