<svg xmlns="http://www.w3.org/2000/svg" width="148.8" height="51.835" viewBox="0 0 148.8 51.835">
    <defs>
        <style>
            .cls-1{fill:#ee9121}.cls-2,.cls-3{clip-path:url(#clip-path)}.cls-3{opacity:.83}.cls-4{fill:#fff}
        </style>
        <clipPath id="clip-path">
            <path id="Path_47" d="M1374.247 206.746a11.287 11.287 0 0 1-2.7-1.055v6.449a2.816 2.816 0 0 1-.234 1.173 3.018 3.018 0 0 1-.586.938 2.717 2.717 0 0 1-.938.586 3.086 3.086 0 0 1-1.172.235 3 3 0 0 1-1.173-.235 3.42 3.42 0 0 1-1.055-.586 2.736 2.736 0 0 1-.586-.938 2.951 2.951 0 0 1-.234-1.173v-25.093a2.952 2.952 0 0 1 .234-1.173 2.742 2.742 0 0 1 .586-.938 3.748 3.748 0 0 1 1.055-.7 3 3 0 0 1 1.173-.235 2.729 2.729 0 0 1 1.524.469 3.24 3.24 0 0 1 1.173 1.173 11.028 11.028 0 0 1 2.7-1.173 11.724 11.724 0 0 1 3.166-.469 11 11 0 0 1 4.456.938 11.451 11.451 0 0 1 3.635 2.462 12.18 12.18 0 0 1 2.463 3.752 11.052 11.052 0 0 1 0 8.912 11.975 11.975 0 0 1-2.463 3.752 11.528 11.528 0 0 1-3.635 2.462 11.009 11.009 0 0 1-4.456.938 11.546 11.546 0 0 1-2.933-.471zm-2.228-9.029a5.563 5.563 0 0 0 1.173 1.759 5.421 5.421 0 0 0 1.759 1.173 5.887 5.887 0 0 0 2.228.469 5.255 5.255 0 0 0 2.111-.469 5.36 5.36 0 0 0 1.759-1.173 5.7 5.7 0 0 0 1.173-1.759 5.2 5.2 0 0 0 .469-2.111 5.09 5.09 0 0 0-.469-2.111 5.812 5.812 0 0 0-1.173-1.759 5.378 5.378 0 0 0-1.759-1.173 5.275 5.275 0 0 0-2.111-.469 5.932 5.932 0 0 0-2.228.469 5.44 5.44 0 0 0-1.759 1.173 5.67 5.67 0 0 0-1.173 1.759 5.048 5.048 0 0 0-.352 2.111 5.119 5.119 0 0 0 .352 2.111z" data-name="Path 47" transform="translate(-1365.57 -183.998)"/>
        </clipPath>
    </defs>
    <g id="Logo-07" transform="translate(-67.74 -13.146)">
        <g id="Group_77" data-name="Group 77" transform="translate(160.139 21.589)">
            <path id="Path_40" d="M1374.247 206.746a11.287 11.287 0 0 1-2.7-1.055v6.449a2.816 2.816 0 0 1-.234 1.173 3.018 3.018 0 0 1-.586.938 2.717 2.717 0 0 1-.938.586 3.086 3.086 0 0 1-1.172.235 3 3 0 0 1-1.173-.235 3.42 3.42 0 0 1-1.055-.586 2.736 2.736 0 0 1-.586-.938 2.951 2.951 0 0 1-.234-1.173v-25.093a2.952 2.952 0 0 1 .234-1.173 2.742 2.742 0 0 1 .586-.938 3.748 3.748 0 0 1 1.055-.7 3 3 0 0 1 1.173-.235 2.729 2.729 0 0 1 1.524.469 3.24 3.24 0 0 1 1.173 1.173 11.028 11.028 0 0 1 2.7-1.173 11.724 11.724 0 0 1 3.166-.469 11 11 0 0 1 4.456.938 11.451 11.451 0 0 1 3.635 2.462 12.18 12.18 0 0 1 2.463 3.752 11.052 11.052 0 0 1 0 8.912 11.975 11.975 0 0 1-2.463 3.752 11.528 11.528 0 0 1-3.635 2.462 11.009 11.009 0 0 1-4.456.938 11.546 11.546 0 0 1-2.933-.471zm-2.228-9.029a5.563 5.563 0 0 0 1.173 1.759 5.421 5.421 0 0 0 1.759 1.173 5.887 5.887 0 0 0 2.228.469 5.255 5.255 0 0 0 2.111-.469 5.36 5.36 0 0 0 1.759-1.173 5.7 5.7 0 0 0 1.173-1.759 5.2 5.2 0 0 0 .469-2.111 5.09 5.09 0 0 0-.469-2.111 5.812 5.812 0 0 0-1.173-1.759 5.378 5.378 0 0 0-1.759-1.173 5.275 5.275 0 0 0-2.111-.469 5.932 5.932 0 0 0-2.228.469 5.44 5.44 0 0 0-1.759 1.173 5.67 5.67 0 0 0-1.173 1.759 5.048 5.048 0 0 0-.352 2.111 5.119 5.119 0 0 0 .352 2.111z" class="cls-1" data-name="Path 40" transform="translate(-1365.57 -183.998)"/>
            <g id="Group_66" class="cls-2" data-name="Group 66">
                <g id="Group_59" data-name="Group 59" transform="translate(-8.677 25.328)">
                    <g id="Group_57" data-name="Group 57" transform="translate(.469 .469)">
                        <path id="Path_41" d="M1302.136 417.717a2.726 2.726 0 0 1-1.759-.586 3.111 3.111 0 0 1-.352-.352v.234l-.235.235-.117.117h-3.752l-.117-.117-.235-.235.117-.352c.347-2.136.741-4.2 1.055-5.98l.7-4.221.469-2.228.117-.117.117-.117h3.987l.117.469c-.124.693-.607 3.341-.7 3.87a5.286 5.286 0 0 1 .469-.352 3.268 3.268 0 0 1 1.876-.586 2.684 2.684 0 0 1 1.642.469 3.123 3.123 0 0 1 1.055 1.173 5.41 5.41 0 0 1 .352 1.759 6.586 6.586 0 0 1-.117 1.759 8.135 8.135 0 0 1-.469 1.876 7.012 7.012 0 0 1-1.055 1.642 5.091 5.091 0 0 1-1.407 1.173 3.581 3.581 0 0 1-1.758.467zm-.117-7.153a.617.617 0 0 0-.352.117 2.09 2.09 0 0 0-.469.469 2.413 2.413 0 0 0-.352.586 4.74 4.74 0 0 0-.235.821 5.013 5.013 0 0 0 0 .938 1.835 1.835 0 0 0 .117.586c.046.141.031.279.117.352.047.039.2 0 .352 0 .129 0 .234.076.352 0a1.733 1.733 0 0 0 .352-.469 3.122 3.122 0 0 0 .352-.7 4.742 4.742 0 0 0 .235-.821 4.466 4.466 0 0 0 .117-.821 1.849 1.849 0 0 0-.117-.586.831.831 0 0 0-.235-.352.3.3 0 0 0-.234-.12z" class="cls-1" data-name="Path 41" transform="translate(-1295.57 -403.998)"/>
                    </g>
                    <g id="Group_58" data-name="Group 58">
                        <path id="Path_42" d="M1298.254 400.819c.025 0 0 .072 0 .117-.117.618-.2 1.344-.352 2.228s-.388 1.871-.586 2.931a5.163 5.163 0 0 1 1.407-1.29 2.924 2.924 0 0 1 1.642-.586 2.351 2.351 0 0 1 1.407.469 2.57 2.57 0 0 1 .821 1.055 4.5 4.5 0 0 1 .469 1.524 6.923 6.923 0 0 1-.117 1.759 7.916 7.916 0 0 1-.586 1.759 6.3 6.3 0 0 1-.938 1.524 4.555 4.555 0 0 1-1.29 1.055 2.966 2.966 0 0 1-1.524.352 2.388 2.388 0 0 1-1.524-.469 2.713 2.713 0 0 1-.821-1.173c-.035.2.024.319 0 .469s-.095.364-.117.469l-.117.235c-.012.034.023.095 0 .117s.022 0 0 0h-3.4c-.012 0 .012.012 0 0s-.012.022 0 0c.384-2.248.624-4.316.938-6.1.128-.756.341-1.489.469-2.228s.246-1.406.352-1.993.165-1.03.234-1.407.1-.646.117-.7c0-.012-.022-.094 0-.117.013 0 .107.012.117 0h3.4m-.586 10.553a1.106 1.106 0 0 0 .586-.235 1.607 1.607 0 0 0 .469-.469 2.689 2.689 0 0 0 .352-.7 5.668 5.668 0 0 0 .234-.938 5.146 5.146 0 0 0 .117-.938 2.269 2.269 0 0 0-.117-.7 1.4 1.4 0 0 0-.352-.586.6.6 0 0 0-.469-.117.981.981 0 0 0-.586.117 2.547 2.547 0 0 0-.586.586 2.9 2.9 0 0 0-.352.7 5.618 5.618 0 0 0-.235.938 5.017 5.017 0 0 0-.117.938 2.264 2.264 0 0 0 .117.7 1 1 0 0 0 .352.469.987.987 0 0 0 .586.235m.586-11.374h-3.87l-.234.352a.908.908 0 0 0-.234.469 1.73 1.73 0 0 0-.117.352v.235l-.235 1.524q-.158.883-.352 1.993c-.129.74-.223 1.469-.352 2.228-.308 1.746-.678 3.661-1.055 5.863l-.234.469.469.469a.825.825 0 0 0 .586.235h3.635l.352-.235c.01-.011-.01.012 0 0a3.138 3.138 0 0 0 1.993.586 4.061 4.061 0 0 0 1.993-.469 5.553 5.553 0 0 0 1.524-1.29 7.369 7.369 0 0 0 1.055-1.759 8.137 8.137 0 0 0 .7-3.87 5.013 5.013 0 0 0-.469-1.759 3.731 3.731 0 0 0-1.173-1.407 3.079 3.079 0 0 0-1.876-.586 3.62 3.62 0 0 0-1.759.469c.033-.185.087-.408.117-.586.151-.878.236-1.615.352-2.228v-.938l-.821-.117zm-.586 10.553h-.117a.254.254 0 0 0 0-.117 2.288 2.288 0 0 1-.117-.586 3.677 3.677 0 0 1 .117-.7 5.134 5.134 0 0 1 .234-.821 2.7 2.7 0 0 1 .235-.586c.088-.125.25-.167.352-.235.061-.04.082 0 .117 0 .036.018-.014.074 0 .117a1.392 1.392 0 0 1 .117.469 3.886 3.886 0 0 1-.117.7 5.263 5.263 0 0 1-.117.821 2.621 2.621 0 0 1-.352.586c-.093.133-.135.286-.235.352-.068.045-.083 0-.117 0z" class="cls-1" data-name="Path 42" transform="translate(-1291.57 -399.998)"/>
                    </g>
                </g>
                <g id="Group_62" data-name="Group 62" transform="translate(3.613 24.976)">
                    <g id="Group_60" data-name="Group 60" transform="translate(.438 .469)">
                        <path id="Path_43" d="M1402.279 405.1a2.965 2.965 0 0 1-.938-.235 1.737 1.737 0 0 1-.7-.352 1.913 1.913 0 0 1-.469-.7 1.648 1.648 0 0 1 0-.821 1.9 1.9 0 0 1 .352-.821 2.378 2.378 0 0 1 .586-.586 3.315 3.315 0 0 1 .821-.469 2.958 2.958 0 0 1 .938-.117 2.76 2.76 0 0 1 .938.117 2.172 2.172 0 0 1 .7.469 1.84 1.84 0 0 1 .469.7 1.662 1.662 0 0 1 0 .821 1.784 1.784 0 0 1-.352.821 2.624 2.624 0 0 1-.586.586 2.734 2.734 0 0 1-.821.352 3.156 3.156 0 0 1-.938.235z" class="cls-1" data-name="Path 43" transform="translate(-1400.115 -400.998)"/>
                    </g>
                    <g id="Group_61" data-name="Group 61">
                        <path id="Path_44" d="M1399.569 397.819a2.493 2.493 0 0 1 .821.117 1.768 1.768 0 0 1 .586.352 1.563 1.563 0 0 1 .352.586 1.119 1.119 0 0 1 0 .586 1.563 1.563 0 0 1-.235.7 2.607 2.607 0 0 1-.586.469 2.428 2.428 0 0 1-.7.352 2.745 2.745 0 0 1-.821.117 1.926 1.926 0 0 1-.7-.117 1.6 1.6 0 0 1-.586-.352 1.215 1.215 0 0 1-.352-.469 1.549 1.549 0 0 1-.117-.7 1.479 1.479 0 0 1 .352-.586 2.29 2.29 0 0 1 .469-.586 2.728 2.728 0 0 1 .7-.352 2.653 2.653 0 0 1 .821-.117m0-.821a3.435 3.435 0 0 0-1.055.234 3.736 3.736 0 0 0-.938.469 3.037 3.037 0 0 0-.7.7 2.184 2.184 0 0 0-.469.938 2.127 2.127 0 0 0 .117 1.055 2.241 2.241 0 0 0 .586.821 2.285 2.285 0 0 0 .821.586 3.233 3.233 0 0 0 1.055.117 3.5 3.5 0 0 0 1.055-.117 3.27 3.27 0 0 0 .938-.469 3.39 3.39 0 0 0 .7-.7 2.372 2.372 0 0 0 .469-1.055 1.807 1.807 0 0 0-.117-.938 2.5 2.5 0 0 0-.586-.938 2.322 2.322 0 0 0-.821-.469 3.138 3.138 0 0 0-1.055-.234z" class="cls-1" data-name="Path 44" transform="translate(-1396.381 -396.998)"/>
                    </g>
                </g>
                <g id="Group_65" data-name="Group 65" transform="translate(2.228 28.728)">
                    <g id="Group_63" data-name="Group 63" transform="translate(.469 .469)">
                        <path id="Path_45" d="M1388.8 442.965l-.117-.117-.117-.117v-.231l.938-4.808c.046-.219.094-.323.117-.469a5.9 5.9 0 0 0 .117-1.055 2.073 2.073 0 0 0-.117-.586.718.718 0 0 0-.117-.235c-.07-.06-.311-.2-.352-.234a.612.612 0 0 1-.117-.7 1.955 1.955 0 0 1 .469-.586 2.963 2.963 0 0 1 .586-.352 4.446 4.446 0 0 1 .821-.352 2.691 2.691 0 0 1 .821-.117 2.411 2.411 0 0 1 1.994.821 2.627 2.627 0 0 1 .352 2.228s-.408 2.333-.469 2.7-.06.7-.117 1.055c-.153.847-.307 1.742-.469 2.7l-.117.117-.117.234-.117.117h-3.87z" class="cls-1" data-name="Path 45" transform="translate(-1388.57 -432.998)"/>
                    </g>
                    <g id="Group_64" data-name="Group 64">
                        <path id="Path_46" d="M1388.205 429.819a1.978 1.978 0 0 1 1.642.7 2.442 2.442 0 0 1 .352 1.993c-.034.175-.07.312-.117.586s-.171.606-.234.938-.054.688-.117 1.055-.177.694-.234 1.055c-.151.838-.307 1.741-.469 2.7 0 .022.035.082 0 .117-.012.012-.107 0-.117 0h-3.4c-.013 0-.107.012-.117 0s0 .022 0 0c.151-.756.329-1.553.469-2.228.06-.291.059-.529.117-.821s.175-.546.234-.821.07-.595.117-.821.093-.436.117-.586a5.391 5.391 0 0 0 .117-1.055 2.621 2.621 0 0 0-.117-.7c-.052-.175-.031-.277-.117-.352s-.164-.188-.234-.235-.2-.088-.234-.117-.035-.035 0-.117a1.611 1.611 0 0 1 .352-.469 3.306 3.306 0 0 1 .586-.352 3.76 3.76 0 0 1 .7-.352 2.275 2.275 0 0 1 .7-.117m0-.821a3.035 3.035 0 0 0-.938.117 3.94 3.94 0 0 0-.821.352 4.3 4.3 0 0 0-.7.586 2.26 2.26 0 0 0-.586.586.957.957 0 0 0 .235 1.173 2.3 2.3 0 0 0 .234.234c.035.023.082.089.117.117a2.366 2.366 0 0 1 0 .469 5.584 5.584 0 0 1-.117.938c-.025.155-.074.373-.117.586l-.117.7c-.06.276-.059.525-.117.821l-.117.469-.117.469c-.14.675-.318 1.352-.469 2.111v.586l.352.234a.825.825 0 0 0 .586.234h3.752l.352-.234a.919.919 0 0 0 .234-.586c.159-.944.32-1.751.469-2.58.06-.372.171-.81.234-1.173s.054-.612.117-.938.188-.658.235-.938.084-.534.117-.7a3.049 3.049 0 0 0-.469-2.58 2.934 2.934 0 0 0-2.345-1.055z" class="cls-1" data-name="Path 46" transform="translate(-1384.57 -428.998)"/>
                    </g>
                </g>
            </g>
            <g id="Group_76" class="cls-3" data-name="Group 76">
                <g id="Group_69" data-name="Group 69" transform="translate(-8.208 25.797)">
                    <g id="Group_67" data-name="Group 67" transform="translate(.352 .235)">
                        <path id="Path_48" d="M1304.785 419.248a2.594 2.594 0 0 1-1.641-.586 2.339 2.339 0 0 1-.586-.586c-.019.11-.117.586-.117.586l-.117.117v.117h-3.635l-.117-.117v-.235c.366-2.191.741-4.2 1.055-5.98l.7-4.221.352-2.228.235-.117h3.635l.117.234-.821 4.456a5.966 5.966 0 0 1 .938-.821 3.094 3.094 0 0 1 1.759-.586 2.531 2.531 0 0 1 1.524.469 3.008 3.008 0 0 1 .938 1.173 4.96 4.96 0 0 1 .352 1.642 6.738 6.738 0 0 1 0 1.759 7.677 7.677 0 0 1-.586 1.759 6.878 6.878 0 0 1-.938 1.642 4.889 4.889 0 0 1-1.407 1.055 3.324 3.324 0 0 1-1.64.468zm-.117-7.153a.951.951 0 0 0-.469.235 1.835 1.835 0 0 0-.469.469 3.085 3.085 0 0 0-.352.7 4.641 4.641 0 0 0-.234.821 5.194 5.194 0 0 0-.117.938 2.494 2.494 0 0 0 .117.7.647.647 0 0 0 .234.352 1 1 0 0 0 .938 0 1.815 1.815 0 0 0 .469-.469 2.9 2.9 0 0 0 .352-.7 5.872 5.872 0 0 0 .235-.938 3.629 3.629 0 0 0 0-.821 2.5 2.5 0 0 0-.117-.7 1.06 1.06 0 0 0-.234-.469.474.474 0 0 0-.353-.113z" class="cls-1" data-name="Path 48" transform="translate(-1298.57 -405.998)"/>
                    </g>
                    <g id="Group_68" data-name="Group 68">
                        <path id="Path_49" d="M1301.785 404.35c.025 0 0 .072 0 .117-.117.618-.2 1.344-.352 2.228s-.388 1.871-.586 2.931a5.16 5.16 0 0 1 1.407-1.29 2.924 2.924 0 0 1 1.642-.586 2.351 2.351 0 0 1 1.407.469 2.568 2.568 0 0 1 .821 1.055 4.5 4.5 0 0 1 .469 1.524 6.929 6.929 0 0 1-.117 1.759 7.9 7.9 0 0 1-.586 1.759 6.306 6.306 0 0 1-.938 1.524 4.556 4.556 0 0 1-1.29 1.055 2.966 2.966 0 0 1-1.524.352 2.388 2.388 0 0 1-1.524-.469 2.711 2.711 0 0 1-.821-1.173c-.035.2.023.319 0 .469s-.095.363-.117.469l-.117.235c-.012.034.023.095 0 .117s.022 0 0 0h-3.4c-.011 0 .012.012 0 0s-.011.022 0 0c.385-2.248.624-4.316.938-6.1.128-.756.341-1.489.469-2.228s.246-1.406.352-1.993.165-1.03.235-1.407.1-.646.117-.7c0-.012-.022-.094 0-.117.013 0 .107.012.117 0h3.4m-.587 10.55a1.107 1.107 0 0 0 .586-.234 1.607 1.607 0 0 0 .469-.469 2.684 2.684 0 0 0 .352-.7 5.679 5.679 0 0 0 .235-.938 5.157 5.157 0 0 0 .117-.938 2.268 2.268 0 0 0-.117-.7 1.405 1.405 0 0 0-.352-.586.6.6 0 0 0-.469-.117.982.982 0 0 0-.586.117 2.554 2.554 0 0 0-.586.586 2.9 2.9 0 0 0-.352.7 5.655 5.655 0 0 0-.235.938 5.037 5.037 0 0 0-.117.938 2.267 2.267 0 0 0 .117.7 1 1 0 0 0 .352.469.987.987 0 0 0 .586.234m.586-10.9h-3.635l-.117.117a.4.4 0 0 0-.117.234c-.013.065-.074.237-.117.469l-.117.234-.235 1.407q-.158.883-.352 1.993c-.128.74-.224 1.47-.352 2.228-.311 1.764-.674 3.755-1.055 5.98l-.117.234.235.352a.537.537 0 0 0 .352.117h3.518l.117-.117a1.255 1.255 0 0 0 .235-.352v-.117a3.116 3.116 0 0 0 .352.352 2.727 2.727 0 0 0 1.759.586 3.561 3.561 0 0 0 1.759-.469 5.074 5.074 0 0 0 1.407-1.173 7.036 7.036 0 0 0 1.055-1.642 8.059 8.059 0 0 0 .469-1.876 6.589 6.589 0 0 0 .117-1.759 5.448 5.448 0 0 0-.352-1.759 3.115 3.115 0 0 0-1.055-1.173 2.687 2.687 0 0 0-1.642-.469 3.268 3.268 0 0 0-1.876.586 5.47 5.47 0 0 0-.469.352c.095-.53.153-1.045.235-1.524.151-.882.353-1.612.469-2.228V404zm-.586 10.436c-.149 0-.307.039-.352 0-.088-.074-.07-.209-.117-.352a1.875 1.875 0 0 1-.117-.586 5.014 5.014 0 0 1 0-.938 4.79 4.79 0 0 1 .235-.821 2.419 2.419 0 0 1 .352-.586 2.141 2.141 0 0 1 .469-.469.614.614 0 0 1 .352-.117.289.289 0 0 1 .234.117.842.842 0 0 1 .235.352 1.822 1.822 0 0 1 .117.586 4.41 4.41 0 0 1-.117.821 4.607 4.607 0 0 1-.235.821 3.066 3.066 0 0 1-.352.7 1.162 1.162 0 0 1-.352.352.6.6 0 0 1-.352.117z" class="cls-1" data-name="Path 49" transform="translate(-1295.57 -403.998)"/>
                    </g>
                </g>
                <g id="Group_72" data-name="Group 72" transform="translate(4.05 25.445)">
                    <g id="Group_70" data-name="Group 70" transform="translate(.241 .235)">
                        <path id="Path_50" d="M1404.089 406.633a2.418 2.418 0 0 1-.821-.117 2.132 2.132 0 0 1-.7-.469 1.419 1.419 0 0 1-.352-.586 1.359 1.359 0 0 1 0-.7 1.46 1.46 0 0 1 .234-.7 2.577 2.577 0 0 1 .586-.586 3.242 3.242 0 0 1 .821-.352 2.476 2.476 0 0 1 .821-.117 2.291 2.291 0 0 1 .821.117 2.141 2.141 0 0 1 .7.352 1.359 1.359 0 0 1 .352.586 1.41 1.41 0 0 1 .117.7 1.968 1.968 0 0 1-.352.821 2.38 2.38 0 0 1-.586.469 2.611 2.611 0 0 1-.7.469 3.364 3.364 0 0 1-.941.113z" class="cls-1" data-name="Path 50" transform="translate(-1402.166 -402.998)"/>
                    </g>
                    <g id="Group_71" data-name="Group 71">
                        <path id="Path_51" d="M1402.862 401.35a2.492 2.492 0 0 1 .821.117 1.767 1.767 0 0 1 .586.352 1.563 1.563 0 0 1 .352.586 1.115 1.115 0 0 1 0 .586 1.56 1.56 0 0 1-.234.7 2.608 2.608 0 0 1-.586.469 2.431 2.431 0 0 1-.7.352 2.746 2.746 0 0 1-.821.117 1.926 1.926 0 0 1-.7-.117 1.6 1.6 0 0 1-.586-.352 1.214 1.214 0 0 1-.352-.469 1.55 1.55 0 0 1-.117-.7 1.482 1.482 0 0 1 .352-.586 2.291 2.291 0 0 1 .469-.586 2.729 2.729 0 0 1 .7-.352 2.654 2.654 0 0 1 .821-.117m0-.352a2.958 2.958 0 0 0-.938.117 3.374 3.374 0 0 0-.821.469 2.4 2.4 0 0 0-.586.586 1.894 1.894 0 0 0-.352.821 1.631 1.631 0 0 0 0 .821 1.936 1.936 0 0 0 .469.7 1.731 1.731 0 0 0 .7.352 2.949 2.949 0 0 0 .938.235 3.232 3.232 0 0 0 .938-.235 2.722 2.722 0 0 0 .821-.352 2.648 2.648 0 0 0 .586-.586 1.766 1.766 0 0 0 .352-.821 1.688 1.688 0 0 0 0-.821 1.826 1.826 0 0 0-.469-.7 2.161 2.161 0 0 0-.7-.469 2.8 2.8 0 0 0-.938-.117z" class="cls-1" data-name="Path 51" transform="translate(-1400.111 -400.998)"/>
                    </g>
                </g>
                <g id="Group_75" data-name="Group 75" transform="translate(2.58 29.197)">
                    <g id="Group_73" data-name="Group 73" transform="translate(.235 .117)">
                        <path id="Path_52" d="M1389.8 443.613l-.117-.117-.117-.117 1.055-4.69a5.086 5.086 0 0 0 0-.586 5.618 5.618 0 0 0 .117-1.055 3.984 3.984 0 0 0 0-.7c-.049-.169-.2-.2-.234-.235-.08-.069-.053-.193-.117-.234s-.2-.086-.235-.117-.1-.111 0-.352a1.379 1.379 0 0 1 .352-.469 3.513 3.513 0 0 1 .586-.469 3.616 3.616 0 0 1 .7-.352 2.858 2.858 0 0 1 .821-.117 2.122 2.122 0 0 1 1.759.821 2.547 2.547 0 0 1 .469 2.111s-.407 2.214-.469 2.58-.176.813-.234 1.173q-.227 1.263-.469 2.7l-.117.117-.117.117h-3.633z" class="cls-1" data-name="Path 52" transform="translate(-1389.57 -433.998)"/>
                    </g>
                    <g id="Group_74" data-name="Group 74">
                        <path id="Path_53" d="M1390.853 433.35a1.978 1.978 0 0 1 1.642.7 2.442 2.442 0 0 1 .352 1.993c-.034.175-.07.312-.117.586s-.171.606-.234.938-.054.688-.117 1.055-.177.694-.235 1.055c-.151.838-.307 1.741-.469 2.7 0 .022.035.082 0 .117-.012.012-.107 0-.117 0h-3.4c-.013 0-.107.012-.117 0s0 .022 0 0c.151-.756.33-1.552.469-2.228.06-.291.058-.529.117-.821s.175-.546.234-.821.07-.594.117-.821.093-.436.117-.586a5.393 5.393 0 0 0 .117-1.055 2.631 2.631 0 0 0-.117-.7c-.052-.175-.031-.277-.117-.352s-.164-.188-.234-.234-.2-.088-.234-.117-.035-.035 0-.117a1.61 1.61 0 0 1 .352-.469 3.3 3.3 0 0 1 .586-.352 3.751 3.751 0 0 1 .7-.352 2.274 2.274 0 0 1 .7-.117m0-.352a2.694 2.694 0 0 0-.821.117 4.45 4.45 0 0 0-.821.352 2.865 2.865 0 0 0-.586.352 2.116 2.116 0 0 0-.469.586.582.582 0 0 0 .117.7c.042.034.152.062.235.117.062.041.043.054.117.117a.767.767 0 0 1 .117.235 2.075 2.075 0 0 1 .117.586 5.924 5.924 0 0 1-.117 1.055c-.025.152-.073.249-.117.469l-.234.821c-.06.274-.059.529-.117.821l-.117.352-.117.469c-.14.675-.2 1.47-.352 2.228l-.117.235.234.234a.537.537 0 0 0 .352.117h3.635l.117-.117a.84.84 0 0 0 .234-.469c.156-.885.319-1.742.469-2.58.059-.366.053-.692.117-1.055s.17-.726.234-1.055.07-.661.117-.938.083-.531.117-.7a2.62 2.62 0 0 0-.352-2.228 2.417 2.417 0 0 0-1.994-.821z" class="cls-1" data-name="Path 53" transform="translate(-1387.57 -432.998)"/>
                    </g>
                </g>
            </g>
        </g>
        <g id="Group_153" data-name="Group 153">
            <g id="Group_1" data-name="Group 1" transform="translate(67.74 13.146)">
                <path id="Path_1" d="M583.2 197.011a12.434 12.434 0 0 1-2.58-1.407 6.931 6.931 0 0 1-1.759-1.993 4.779 4.779 0 0 1-.7-2.58 6.5 6.5 0 0 1 .7-2.931 6.737 6.737 0 0 1 1.759-2.228 8.976 8.976 0 0 1 2.7-1.407 9.493 9.493 0 0 1 3.166-.469 11.883 11.883 0 0 1 2.111.117 10.574 10.574 0 0 1 2.111.586 7.483 7.483 0 0 1 1.759 1.055 4.426 4.426 0 0 1 1.29 1.407 2.679 2.679 0 0 1 .234 1.642 2.557 2.557 0 0 1-.586 1.29 2.91 2.91 0 0 1-1.407.821 2.119 2.119 0 0 1-1.524-.117 5.93 5.93 0 0 1-.938-.469c-.267-.178-.553-.307-.821-.469a5.591 5.591 0 0 0-.821-.469 3.123 3.123 0 0 0-1.055-.117 3.831 3.831 0 0 0-1.993.352 1.264 1.264 0 0 0-.586 1.173 1 1 0 0 0 .234.7 2.358 2.358 0 0 0 .7.586 7.9 7.9 0 0 0 1.173.586c.453.162.958.291 1.524.469a27.923 27.923 0 0 1 2.7 1.055 9.5 9.5 0 0 1 2.228 1.29 5.712 5.712 0 0 1 1.524 1.876 5.882 5.882 0 0 1 .586 2.7 7.313 7.313 0 0 1-2.345 5.042 8.419 8.419 0 0 1-2.7 1.524 9.559 9.559 0 0 1-3.283.586 12.944 12.944 0 0 1-2.345-.235 12.2 12.2 0 0 1-2.462-.821 9.269 9.269 0 0 1-2.111-1.29 6.059 6.059 0 0 1-1.641-1.876 3.289 3.289 0 0 1-.469-1.642 2.5 2.5 0 0 1 .352-1.29 2.6 2.6 0 0 1 .938-.938 2.834 2.834 0 0 1 1.29-.469 3.2 3.2 0 0 1 1.407.352 3.679 3.679 0 0 1 1.407 1.055 7.864 7.864 0 0 0 .821.821 3.919 3.919 0 0 0 .7.586 3.63 3.63 0 0 0 .938.352 4.474 4.474 0 0 0 1.055.117 4.523 4.523 0 0 0 .938-.117 3.15 3.15 0 0 0 .821-.352 1.707 1.707 0 0 0 .586-.469 1.187 1.187 0 0 0 .234-.7 1.075 1.075 0 0 0-.352-.821 3.579 3.579 0 0 0-.821-.7 4.887 4.887 0 0 0-.938-.352c-.324-.1-.51-.17-.7-.235-1.021-.375-2.082-.764-3.049-1.177z" class="cls-1" data-name="Path 1" transform="translate(-577.567 -175.553)"/>
                <path id="Path_2" d="M753.55 124.317a10.914 10.914 0 0 1 2.58-1.524 6.92 6.92 0 0 1 2.7-.586 9.091 9.091 0 0 1 3.987.938 8.688 8.688 0 0 1 2.931 2.345 11.7 11.7 0 0 1 1.993 3.635 13 13 0 0 1 .821 4.339v8.794a2.907 2.907 0 0 1-.352 1.173 2.413 2.413 0 0 1-.586.821 3.128 3.128 0 0 1-.938.7 3.073 3.073 0 0 1-1.172.235 3.013 3.013 0 0 1-1.173-.235 3.235 3.235 0 0 1-.938-.7 2.4 2.4 0 0 1-.586-.821 2.911 2.911 0 0 1-.352-1.173V133.463a7.672 7.672 0 0 0-.235-2.111 5.19 5.19 0 0 0-.938-1.642 3.729 3.729 0 0 0-1.29-1.055 4.225 4.225 0 0 0-1.876-.469 4.537 4.537 0 0 0-1.876.469 4.049 4.049 0 0 0-1.407 1.055 4.618 4.618 0 0 0-.938 1.524 6.314 6.314 0 0 0-.352 2.111v8.794a2.945 2.945 0 0 1-.234 1.173 2.822 2.822 0 0 1-.586.938 2.735 2.735 0 0 1-.938.586 3.033 3.033 0 0 1-1.173.235 2.983 2.983 0 0 1-1.173-.235 3.206 3.206 0 0 1-1.055-.586 2.827 2.827 0 0 1-.586-.938 2.947 2.947 0 0 1-.235-1.173v-25.092a2.861 2.861 0 0 1 .235-1.173 3.109 3.109 0 0 1 .7-.938 3.067 3.067 0 0 1 .938-.7 2.975 2.975 0 0 1 1.173-.235 3.033 3.033 0 0 1 1.173.235 3.1 3.1 0 0 1 .938.7 2.688 2.688 0 0 1 .586.938 3.013 3.013 0 0 1 .234 1.173z" class="cls-1" data-name="Path 2" transform="translate(-727.636 -113.763)"/>
                <path id="Path_3" d="M943.508 191.151a12.177 12.177 0 0 1 2.462-3.752 12.033 12.033 0 0 1 3.752-2.462 11.051 11.051 0 0 1 8.911 0 11.978 11.978 0 0 1 3.752 2.462 12.165 12.165 0 0 1 2.462 3.752 11.052 11.052 0 0 1 0 8.912 11.042 11.042 0 0 1-6.215 6.215 11.051 11.051 0 0 1-8.911 0 12.171 12.171 0 0 1-3.752-2.462 11.986 11.986 0 0 1-2.462-3.752 11.051 11.051 0 0 1 0-8.912zm5.628 6.566a5.554 5.554 0 0 0 1.173 1.759 5.445 5.445 0 0 0 1.759 1.173 5.308 5.308 0 0 0 2.11.469 5.853 5.853 0 0 0 2.228-.469 4.875 4.875 0 0 0 1.641-1.173 5.746 5.746 0 0 0 1.173-1.759 5.192 5.192 0 0 0 .469-2.111 5.111 5.111 0 0 0-.469-2.111 5.809 5.809 0 0 0-1.173-1.759 4.891 4.891 0 0 0-1.641-1.173 5.853 5.853 0 0 0-2.228-.469 5.328 5.328 0 0 0-2.11.469 5.439 5.439 0 0 0-1.759 1.173 5.661 5.661 0 0 0-1.173 1.759 5.111 5.111 0 0 0-.469 2.111 5.177 5.177 0 0 0 .469 2.111z" class="cls-1" data-name="Path 3" transform="translate(-899.771 -175.555)"/>
                <path id="Path_4" d="M1149.391 191.151a12.511 12.511 0 0 1 2.58-3.752 11.508 11.508 0 0 1 3.635-2.462 11.055 11.055 0 0 1 4.456-.938 11.6 11.6 0 0 1 8.208 3.4 12.163 12.163 0 0 1 2.462 3.752 11.051 11.051 0 0 1 0 8.912 11.973 11.973 0 0 1-2.462 3.752 11.6 11.6 0 0 1-8.208 3.4 11.064 11.064 0 0 1-4.456-.938 11.638 11.638 0 0 1-3.635-2.462 12.328 12.328 0 0 1-2.58-3.752 10.863 10.863 0 0 1-.821-4.456 10.754 10.754 0 0 1 .821-4.456zm5.628 6.566a5.559 5.559 0 0 0 1.172 1.759 5.449 5.449 0 0 0 1.759 1.173 5.309 5.309 0 0 0 2.111.469 5.848 5.848 0 0 0 2.228-.469 5.358 5.358 0 0 0 1.759-1.173 5.744 5.744 0 0 0 1.173-1.759 5.192 5.192 0 0 0 .469-2.111 5.111 5.111 0 0 0-.469-2.111 5.807 5.807 0 0 0-1.173-1.759 5.376 5.376 0 0 0-1.759-1.173 5.853 5.853 0 0 0-2.228-.469 5.334 5.334 0 0 0-2.111.469 5.443 5.443 0 0 0-1.759 1.173 5.667 5.667 0 0 0-1.172 1.759 5.111 5.111 0 0 0-.469 2.111 5.2 5.2 0 0 0 .469 2.111z" class="cls-1" data-name="Path 4" transform="translate(-1081.615 -175.555)"/>
                <path id="Path_5" d="M1374.247 206.746a11.219 11.219 0 0 1-2.7-1.055v6.449a2.809 2.809 0 0 1-.234 1.173 3.023 3.023 0 0 1-.586.938 2.705 2.705 0 0 1-.938.586 3.068 3.068 0 0 1-1.172.235 2.979 2.979 0 0 1-1.173-.235 3.444 3.444 0 0 1-1.055-.586 2.736 2.736 0 0 1-.586-.938 2.951 2.951 0 0 1-.234-1.173v-25.093a2.922 2.922 0 0 1 .234-1.173 2.764 2.764 0 0 1 .586-.938 3.731 3.731 0 0 1 1.055-.7 2.975 2.975 0 0 1 1.173-.235 2.738 2.738 0 0 1 1.524.469 3.258 3.258 0 0 1 1.173 1.173 11.163 11.163 0 0 1 2.7-1.173 11.771 11.771 0 0 1 3.166-.469 11 11 0 0 1 4.456.938 11.451 11.451 0 0 1 3.635 2.462 12.166 12.166 0 0 1 2.463 3.752 11.052 11.052 0 0 1 0 8.912 11.975 11.975 0 0 1-2.463 3.752 11.547 11.547 0 0 1-3.635 2.462 11 11 0 0 1-4.456.938 11.623 11.623 0 0 1-2.933-.471zm-2.228-9.029a5.556 5.556 0 0 0 1.173 1.759 5.445 5.445 0 0 0 1.759 1.173 5.887 5.887 0 0 0 2.228.469 5.271 5.271 0 0 0 2.111-.469 5.36 5.36 0 0 0 1.759-1.173 5.746 5.746 0 0 0 1.173-1.759 5.194 5.194 0 0 0 .469-2.111 5.113 5.113 0 0 0-.469-2.111 5.812 5.812 0 0 0-1.173-1.759 5.378 5.378 0 0 0-1.759-1.173 5.275 5.275 0 0 0-2.111-.469 5.914 5.914 0 0 0-2.228.469 5.44 5.44 0 0 0-1.759 1.173 5.663 5.663 0 0 0-1.173 1.759 5.051 5.051 0 0 0-.352 2.111 5.116 5.116 0 0 0 .352 2.111z" class="cls-1" data-name="Path 5" transform="translate(-1273.171 -175.555)"/>
                <path id="Path_6" d="M1580.8 113.991a3.5 3.5 0 0 1 .7-1.055 3.388 3.388 0 0 1 1.055-.7 2.76 2.76 0 0 1 1.172-.235 3.336 3.336 0 0 1 1.29.235 3.513 3.513 0 0 1 1.055.7 3.356 3.356 0 0 1 .7 1.055 2.693 2.693 0 0 1 .234 1.173 3.321 3.321 0 0 1-.234 1.29 3.278 3.278 0 0 1-.7 1.055 3.5 3.5 0 0 1-1.055.7 3.314 3.314 0 0 1-1.29.235 2.778 2.778 0 0 1-1.172-.235 3.232 3.232 0 0 1-1.759-1.759 3.311 3.311 0 0 1-.235-1.29 2.678 2.678 0 0 1 .239-1.169zm5.98 26.383a2.945 2.945 0 0 1-.235 1.173 2.823 2.823 0 0 1-.586.938 3.27 3.27 0 0 1-1.055.586 2.482 2.482 0 0 1-1.055.234 2.957 2.957 0 0 1-1.173-.234 3.3 3.3 0 0 1-1.055-.586 2.97 2.97 0 0 1-.586-.938 2.814 2.814 0 0 1-.234-1.173v-16.885a3.2 3.2 0 0 1 .821-2.111 3.4 3.4 0 0 1 1.055-.7 3.049 3.049 0 0 1 2.345 0 2.909 2.909 0 0 1 .938.7 3.2 3.2 0 0 1 .821 2.111z" class="cls-1" data-name="Path 6" transform="translate(-1462.96 -111.998)"/>
                <path id="Path_7" d="M1671.8 183.974c.1 0 .138-.007.234 0s.271.1.352.117a2.6 2.6 0 0 1 1.524.821 2.835 2.835 0 0 1 .586.821c0 .033.1.1.117.117v.352a2.216 2.216 0 0 1 .117.7 3.122 3.122 0 0 1-.234 1.29 3.019 3.019 0 0 1-.7.938l-11.609 11.843h10.084a3.131 3.131 0 0 1 1.172.235 3.443 3.443 0 0 1 1.055.586 2.766 2.766 0 0 1 .586.938 2.979 2.979 0 0 1 .234 1.173 2.945 2.945 0 0 1-.234 1.173 2.824 2.824 0 0 1-.586.938 3.283 3.283 0 0 1-1.055.586 2.974 2.974 0 0 1-1.172.235h-16.651a2.925 2.925 0 0 1-1.173-.235 2.667 2.667 0 0 1-.938-.586 3.122 3.122 0 0 1-.586-.938 2.952 2.952 0 0 1-.234-1.173 2.989 2.989 0 0 1 .234-1.173 2.844 2.844 0 0 1 .586-.938 2.932 2.932 0 0 1 .938-.586 3.1 3.1 0 0 1 1.173-.235h6.567l-4.925 5.042a2.611 2.611 0 0 1-1.876.821 2.876 2.876 0 0 1-1.876-.938 2.971 2.971 0 0 1-.7-.938 2.492 2.492 0 0 1 0-2.111 3.428 3.428 0 0 1 .7-1.055l11.609-11.843h-9.381a2.924 2.924 0 0 1-1.172-.235 2.866 2.866 0 0 1-.938-.586 3.351 3.351 0 0 1-.586-1.055 2.975 2.975 0 0 1-.234-1.173 2.463 2.463 0 0 1 .234-1.055 2.715 2.715 0 0 1 .586-.938 3.372 3.372 0 0 1 .938-.7 2.944 2.944 0 0 1 1.172-.235z" class="cls-1" data-name="Path 7" transform="translate(-1526.518 -175.532)"/>
            </g>
            <g id="Group_78" data-name="Group 78" transform="translate(87.035 47.385)">
                <path id="Path_55" d="M751.436 444.854a6.283 6.283 0 0 1-.586 1.993 5.858 5.858 0 0 1-1.29 1.642 5.171 5.171 0 0 1-1.642 1.173 6.207 6.207 0 0 1-2.228.352 4.33 4.33 0 0 1-1.642-.235 3.639 3.639 0 0 1-1.055-.7 2.727 2.727 0 0 1-.586-.821 2.243 2.243 0 0 1-.235-.586 1.5 1.5 0 0 1 0-.821c.07-.116.141-.246.235-.235a.6.6 0 0 1 .352.235 2.974 2.974 0 0 0 .352.586 3.65 3.65 0 0 0 .821.352 2.736 2.736 0 0 0 1.173.234 2.576 2.576 0 0 0 .938-.117 2.615 2.615 0 0 0 .7-.469 2.341 2.341 0 0 0 .586-.586 2.945 2.945 0 0 0 .352-.821c.057-.267.07-.524.117-.821s.176-.636.234-.938a6.637 6.637 0 0 1-.821 1.055 3.832 3.832 0 0 1-.821.586 3.5 3.5 0 0 1-.821.352 3.549 3.549 0 0 1-.821.117 1.706 1.706 0 0 1-.821-.235 1.845 1.845 0 0 1-.7-.586 2.479 2.479 0 0 1-.352-.938 3.169 3.169 0 0 1 0-1.173c.035-.186.088-.3.117-.469s.082-.382.117-.586l.117-.7c.041-.24.059-.495.117-.821a6.158 6.158 0 0 0 .117-1.173 2.259 2.259 0 0 0-.117-.7.8.8 0 0 0-.235-.352c-.094-.075-.159-.189-.234-.235s-.189.029-.234 0-.047-.154 0-.234a1.625 1.625 0 0 1 .352-.469 3.607 3.607 0 0 1 .586-.352 3.4 3.4 0 0 1 .7-.234 2.305 2.305 0 0 1 .7-.117 2.347 2.347 0 0 1 .938.117 1.966 1.966 0 0 1 .7.586 2.032 2.032 0 0 1 .469.821 2.5 2.5 0 0 1 0 1.055c-.023.151-.072.342-.117.586s-.065.523-.117.821-.176.612-.235.938-.059.636-.117.938a1.186 1.186 0 0 0 .117.938c.145.151.365.1.586 0s.353-.266.586-.586a3.42 3.42 0 0 0 .586-1.29c.1-.628.135-1.205.234-1.759s.283-.987.352-1.407c.081-.489.152-.987.234-1.407 0-.012-.035.035 0 0 .012-.012-.012 0 0 0h3.4c.012 0-.012-.012 0 0s.117-.035.117 0c-.163.978-.318 2.011-.469 2.931-.07.4-.164.753-.234 1.173s-.164.772-.234 1.173-.171.806-.235 1.173-.056.754-.103 1.046z" class="cls-4" data-name="Path 55" transform="translate(-742.12 -433.128)"/>
                <path id="Path_56" d="M842.334 415.144a6.557 6.557 0 0 0-.117 1.173 2.4 2.4 0 0 0 .117.7.8.8 0 0 0 .234.352 2.589 2.589 0 0 0 .235.234.538.538 0 0 1 .117.117c.029.029.034.036 0 .117a1.626 1.626 0 0 1-.352.469 3.607 3.607 0 0 1-.586.352 2.682 2.682 0 0 1-.586.352 3.1 3.1 0 0 1-.821.117 1.925 1.925 0 0 1-1.407-.586 2.141 2.141 0 0 1-.586-1.524 4.871 4.871 0 0 1-1.642 1.642 3.4 3.4 0 0 1-1.524.469 2.2 2.2 0 0 1-.938-.235 1.522 1.522 0 0 1-.586-.586 2.478 2.478 0 0 1-.352-.938 3.169 3.169 0 0 1 0-1.173c.057-.361.164-.77.235-1.173s.117-.872.234-1.524a6.152 6.152 0 0 0 .117-1.173 2.256 2.256 0 0 0-.117-.7.8.8 0 0 0-.234-.352c-.094-.075-.16-.189-.235-.235s-.188-.088-.235-.117-.047-.036 0-.117a1.627 1.627 0 0 1 .352-.469 3.6 3.6 0 0 1 .586-.352 2.758 2.758 0 0 1 .586-.352 3.106 3.106 0 0 1 .821-.117 2.4 2.4 0 0 1 .938.234 1.909 1.909 0 0 1 .7.586 2.032 2.032 0 0 1 .469.821 2.455 2.455 0 0 1 0 1.055c-.023.151-.07.331-.117.586s-.06.624-.117.938-.176.606-.234.938-.059.634-.117.938a.952.952 0 0 0 .117.821.356.356 0 0 0 .469.117 1.743 1.743 0 0 0 .7-.586 2.914 2.914 0 0 0 .469-1.173c.093-.5.147-.971.235-1.524s.259-1.153.352-1.642c.093-.558.129-1.094.235-1.642 0-.023.082-.082.117-.117.012-.012-.012 0 0 0h3.518c.012 0-.012-.012 0 0s0 .082 0 .117c-.175.758-.223 1.435-.352 2.111-.129.583-.247 1.188-.352 1.759s-.289.989-.346 1.292zm-3.518-7.622a1.375 1.375 0 0 1-.234.586 2.756 2.756 0 0 1-1.055.821 2.165 2.165 0 0 1-.7.117 1.607 1.607 0 0 1-1.173-.469 1.12 1.12 0 0 1-.235-1.055 1.469 1.469 0 0 1 .235-.586 2.092 2.092 0 0 1 .469-.469 2 2 0 0 1 .586-.352 2.275 2.275 0 0 1 .7-.117 1.6 1.6 0 0 1 1.173.469 1.109 1.109 0 0 1 .234 1.055zm4.1 0a1.375 1.375 0 0 1-.234.586 2.282 2.282 0 0 1-.469.469 2.055 2.055 0 0 1-.586.352 2.166 2.166 0 0 1-.7.117 1.618 1.618 0 0 1-1.173-.469 1.131 1.131 0 0 1-.352-1.055 1.472 1.472 0 0 1 .234-.586 2.756 2.756 0 0 1 1.055-.821 2.2 2.2 0 0 1 .7-.117 1.589 1.589 0 0 1 1.173.469 1.172 1.172 0 0 1 .356 1.055z" class="cls-4" data-name="Path 56" transform="translate(-822.582 -405.763)"/>
                <path id="Path_57" d="M926.08 442.906a3.024 3.024 0 0 1-.469 1.407 2.313 2.313 0 0 1-.821.821 3.31 3.31 0 0 1-1.173.352 4.751 4.751 0 0 1-1.29 0c-.222-.035-.53-.083-.938-.117s-.813-.083-1.29-.117-.929.022-1.407 0-.929-.117-1.29-.117c-.012.012.012.012 0 0-.035 0-.023.047 0 0 .023-.373-.035-.765 0-1.055a6.423 6.423 0 0 1 .234-.938 2.918 2.918 0 0 1 .7-1.055 9.929 9.929 0 0 1 1.173-1.055 12.949 12.949 0 0 1 1.29-.821c.473-.279.94-.529 1.29-.7a6.559 6.559 0 0 1 .7-.352c.256-.1.564-.141.821-.235a22.714 22.714 0 0 0-2.931-.117 19.2 19.2 0 0 0-2.345.352.1.1 0 0 1-.117 0c-.012-.012 0 .012 0 0a4.637 4.637 0 0 1 0-1.173 2.846 2.846 0 0 1 .469-.821 2.265 2.265 0 0 1 .938-.821 2.664 2.664 0 0 1 1.172-.352 10.551 10.551 0 0 1 1.407.117c.542.065 1.236.147 1.993.235a25.9 25.9 0 0 0 2.814.117c.057 0 0-.047 0 0-.059.338-.076.706-.117 1.055a5.159 5.159 0 0 1-.234 1.055 2.407 2.407 0 0 1-.469.821 7.459 7.459 0 0 1-.938.938 10.644 10.644 0 0 1-1.173.821c-.437.269-.94.471-1.407.7-.28.139-.517.319-.821.469s-.612.318-.938.469h1.887a8.928 8.928 0 0 0 1.642-.117 3.568 3.568 0 0 0 .821-.235 1.586 1.586 0 0 0 .352-.234.213.213 0 0 1 .234 0c.082.082.076.206.117.352s.126.222.114.351z" class="cls-4" data-name="Path 57" transform="translate(-896.83 -432.235)"/>
                <path id="Path_58" d="M1042.559 414.323a5.336 5.336 0 0 1-.586 1.876 5.3 5.3 0 0 1-3.049 2.462 5.45 5.45 0 0 1-1.993.469 4.538 4.538 0 0 1-1.876-.469 3.536 3.536 0 0 1-2.228-2.462 4.512 4.512 0 0 1 0-1.876 5.628 5.628 0 0 1 .7-1.876 5.472 5.472 0 0 1 1.29-1.407 6.377 6.377 0 0 1 1.759-1.055 5.38 5.38 0 0 1 1.993-.352 4.524 4.524 0 0 1 1.876.352 3.976 3.976 0 0 1 1.407 1.055 3.246 3.246 0 0 1 .7 1.407 4.53 4.53 0 0 1 .007 1.876zm-3.87-6.8a1.375 1.375 0 0 1-.234.586 2.755 2.755 0 0 1-1.055.821 2.166 2.166 0 0 1-.7.117 1.606 1.606 0 0 1-1.172-.469 1.124 1.124 0 0 1-.235-1.055 1.472 1.472 0 0 1 .235-.586 1.612 1.612 0 0 1 .352-.469 2.672 2.672 0 0 1 .7-.352 2.275 2.275 0 0 1 .7-.117 1.34 1.34 0 0 1 1.055.469 1.166 1.166 0 0 1 .354 1.054zm-2.462 6.8a5.756 5.756 0 0 0-.117 1.055 3.823 3.823 0 0 0 .117.938 1.281 1.281 0 0 0 .352.586.772.772 0 0 0 .586.234 1.246 1.246 0 0 0 .7-.234 2.01 2.01 0 0 0 .586-.586 4.828 4.828 0 0 0 .469-.938 7.138 7.138 0 0 0 .235-1.055 5.691 5.691 0 0 0 .117-1.055 2.836 2.836 0 0 0-.117-.821 1.714 1.714 0 0 0-.352-.7.783.783 0 0 0-.586-.235 1.187 1.187 0 0 0-.7.235 2.814 2.814 0 0 0-.586.7 3.219 3.219 0 0 0-.352.821 8.3 8.3 0 0 0-.352 1.055zm6.567-6.8a1.374 1.374 0 0 1-.235.586 2.25 2.25 0 0 1-.469.469 2.071 2.071 0 0 1-.586.352 2.166 2.166 0 0 1-.7.117 1.618 1.618 0 0 1-1.172-.469 1.13 1.13 0 0 1-.352-1.055 1.468 1.468 0 0 1 .234-.586 2.119 2.119 0 0 1 .469-.469 2.064 2.064 0 0 1 .586-.352 2.2 2.2 0 0 1 .7-.117 1.589 1.589 0 0 1 1.173.469 1.179 1.179 0 0 1 .351 1.054z" class="cls-4" data-name="Path 58" transform="translate(-998.652 -405.763)"/>
                <path id="Path_59" d="M1119.864 407.076c0-.012-.035-.082 0-.117.012-.012.094 0 .117 0h3.518c.011 0-.012-.012 0 0s.011.094 0 .117c-.257 1.455-.494 2.752-.7 3.987-.094.524-.141 1.119-.234 1.642s-.16.959-.235 1.407-.17.841-.234 1.173-.094.552-.117.7a6.559 6.559 0 0 0-.117 1.173 2.4 2.4 0 0 0 .117.7c.059.175.035.277.117.352a2.592 2.592 0 0 0 .234.234c.07.047.2.088.235.117s.035.036 0 .117a1.988 1.988 0 0 1-.469.469 9.588 9.588 0 0 1-1.29.7 3.209 3.209 0 0 1-.821.117 1.752 1.752 0 0 1-1.524-.7 2.451 2.451 0 0 1-.352-1.993 1.117 1.117 0 0 1 0-.469c.053-.3.152-.689.235-1.173s.24-1.031.352-1.642.129-1.248.235-1.876c.25-1.483.595-3.15.933-5.035z" class="cls-4" data-name="Path 59" transform="translate(-1073.963 -406.607)"/>
                <path id="Path_60" d="M1169.605 442.447a.4.4 0 0 1 .117.352 8.14 8.14 0 0 1-.586.7 5.29 5.29 0 0 1-.938.938 5.673 5.673 0 0 1-1.29.821 4.51 4.51 0 0 1-1.759.234 4.558 4.558 0 0 1-1.876-.352 3.637 3.637 0 0 1-1.29-1.055 3.379 3.379 0 0 1-.7-1.407 4.449 4.449 0 0 1-.117-1.876 5.733 5.733 0 0 1 1.876-3.283 6.01 6.01 0 0 1 1.641-1.055 6.107 6.107 0 0 1 1.994-.469 6.557 6.557 0 0 1 1.407.117 3.848 3.848 0 0 1 1.173.469 2.108 2.108 0 0 1 .7.821 1.558 1.558 0 0 1 .234 1.055 1.742 1.742 0 0 1-.234.586 2.353 2.353 0 0 1-.469.586 2.545 2.545 0 0 1-.586.469 2.152 2.152 0 0 1-.821.117 2.193 2.193 0 0 1-.7-.117 1.034 1.034 0 0 1-.469-.235c-.023-.081.082-.123.117-.234s-.023-.294 0-.469a1.215 1.215 0 0 0 0-.821.659.659 0 0 0-.586-.352.823.823 0 0 0-.586.234 2.81 2.81 0 0 0-.586.7 3.487 3.487 0 0 0-.352.821 5.252 5.252 0 0 0-.234 1.055 2.48 2.48 0 0 0 .352 1.759 1.691 1.691 0 0 0 1.173.586 3.986 3.986 0 0 0 1.642 0 6.352 6.352 0 0 0 1.524-.7c.099-.063.171-.052.229.005zm-4.573 2.7c.035 0 .117-.023.117 0l-.235 1.29a2.408 2.408 0 0 1 1.29.117 1.7 1.7 0 0 1 .821.586 1.623 1.623 0 0 1 .234.938 1.5 1.5 0 0 1-.352.821 2.14 2.14 0 0 1-.821.7 2.942 2.942 0 0 1-1.407.234 2.754 2.754 0 0 1-1.055-.234 2.667 2.667 0 0 1-.7-.469 1.488 1.488 0 0 1-.352-.469c-.053-.134-.069-.223 0-.234.012-.012.095.07.234.117s.388.076.586.117.353.088.586.117a2.822 2.822 0 0 0 .7 0 .9.9 0 0 0 .469-.235 1.034 1.034 0 0 0 .352-.586c.035-.291-.178-.488-.586-.586a3.9 3.9 0 0 0-1.759.117c-.058 0-.023.047 0 0a3.751 3.751 0 0 1 .235-.469c.157-.227.406-.453.586-.7s.318-.483.469-.7.292-.4.352-.469h.234z" class="cls-4" data-name="Path 60" transform="translate(-1111.979 -432.246)"/>
                <path id="Path_61" d="M1241.069 489.757a3.632 3.632 0 0 1-.469 1.29 4.646 4.646 0 0 1-.7.938 4.246 4.246 0 0 1-.821.586 4.431 4.431 0 0 1-.586.352 1.8 1.8 0 0 1-.821.117.207.207 0 0 1-.117-.235c.035-.116.13-.177.352-.352a3.59 3.59 0 0 0 .821-.821c.076-.175.046-.293-.117-.352a1.339 1.339 0 0 1-.7-.586 1.706 1.706 0 0 1-.234-1.055c.047-.233.223-.376.352-.586a2.162 2.162 0 0 1 .352-.586 2.5 2.5 0 0 1 .7-.352 1.973 1.973 0 0 1 .7-.117 1.211 1.211 0 0 1 1.055.469 1.519 1.519 0 0 1 .233 1.29z" class="cls-4" data-name="Path 61" transform="translate(-1179.456 -478.148)"/>
                <path id="Path_62" d="M1309.324 410.4a2.357 2.357 0 0 1 1.407.469 2.56 2.56 0 0 1 .821 1.055 4.407 4.407 0 0 1 .352 1.524 6.8 6.8 0 0 1 0 1.759 7.866 7.866 0 0 1-.586 1.759 6.285 6.285 0 0 1-.938 1.524 4.551 4.551 0 0 1-1.29 1.055 2.966 2.966 0 0 1-1.524.352 2.394 2.394 0 0 1-1.524-.469 2.713 2.713 0 0 1-.821-1.173c-.035.2-.094.318-.117.469s.023.363 0 .469l-.117.235c-.012.035.023.094 0 .117s-.094 0-.117 0h-3.283c-.012 0-.105.012-.117 0s-.012.023 0 0c.385-2.247.74-4.316 1.055-6.1.128-.756.224-1.488.352-2.228s.247-1.406.352-1.993.281-1.028.352-1.407.106-.645.117-.7c0-.012-.024-.094 0-.117.012 0-.012.012 0 0h3.4c.023 0 .117.07.117.117-.116.618-.318 1.344-.469 2.228s-.271 1.873-.469 2.931a4.758 4.758 0 0 1 1.29-1.29 3.278 3.278 0 0 1 1.757-.586zm-2.814 7.153a1.111 1.111 0 0 0 .586-.234 1.991 1.991 0 0 0 .586-.469 2.722 2.722 0 0 0 .352-.7 5.881 5.881 0 0 0 .235-.938 5.064 5.064 0 0 0 .117-.938 2.268 2.268 0 0 0-.117-.7 1.4 1.4 0 0 0-.352-.586.924.924 0 0 0-.586-.117.983.983 0 0 0-.586.117 2.2 2.2 0 0 0-.469.586 2.839 2.839 0 0 0-.352.7 5.659 5.659 0 0 0-.234.938 4.964 4.964 0 0 0-.117.938 2.238 2.238 0 0 0 .117.7 1 1 0 0 0 .352.469.694.694 0 0 0 .468.232z" class="cls-4" data-name="Path 62" transform="translate(-1235.868 -406.646)"/>
                <path id="Path_63" d="M1395.127 416.779c0 .023-.082.082-.117.117-.012.012.012 0 0 0h-3.518c-.012 0 .012.012 0 0s0 .023 0 0c.151-.756.329-1.553.469-2.228.057-.291.059-.529.117-.821s.176-.548.234-.821.07-.594.117-.821.094-.435.117-.586a5.566 5.566 0 0 0 .117-1.055 2.613 2.613 0 0 0-.117-.7.712.712 0 0 0-.235-.352c-.088-.075-.165-.189-.234-.235s-.082-.088-.117-.117-.035-.036 0-.117a1.626 1.626 0 0 1 .352-.469 3.376 3.376 0 0 1 .586-.352 3.836 3.836 0 0 1 .7-.352 2.3 2.3 0 0 1 .7-.117 1.981 1.981 0 0 1 1.642.7 2.451 2.451 0 0 1 .352 1.993c-.035.175-.072.312-.117.586s-.17.606-.235.938-.17.688-.234 1.055-.059.694-.117 1.055c-.145.838-.299 1.744-.462 2.699zm1.873-11.14a1.784 1.784 0 0 1-.352.7 1.981 1.981 0 0 1-.469.469 2.434 2.434 0 0 1-.7.352 2.757 2.757 0 0 1-.821.117 2.656 2.656 0 0 1-.821-.117 1.592 1.592 0 0 1-.586-.352 1.244 1.244 0 0 1-.352-.469 1.579 1.579 0 0 1 0-.7 1.222 1.222 0 0 1 .234-.586 2.78 2.78 0 0 1 .586-.586 2.726 2.726 0 0 1 .7-.352 2.58 2.58 0 0 1 .821-.117 1.81 1.81 0 0 1 .7.117 1.754 1.754 0 0 1 .586.352 1.562 1.562 0 0 1 .352.586 1.136 1.136 0 0 1 .122.586z" class="cls-4" data-name="Path 63" transform="translate(-1315.339 -403.998)"/>
                <path id="Path_64" d="M1441.855 436a1.7 1.7 0 0 1 1.29.586 1.533 1.533 0 0 1 .352 1.407 2.914 2.914 0 0 1-.352.938 2.569 2.569 0 0 1-.586.7 2.8 2.8 0 0 1-.821.469 2.326 2.326 0 0 1-.821.117 1.235 1.235 0 0 1-.586-.117.5.5 0 0 1-.234-.235.238.238 0 0 1 0-.234c.035-.081-.022-.177 0-.352.105-.512.022-.821-.234-.821-.128 0-.142.13-.234.234s-.277.171-.352.352a6.047 6.047 0 0 0-.117.7c-.059.239-.189.436-.235.7-.094.5-.141.983-.234 1.524s-.152 1.071-.234 1.524c-.094.536-.258 1.012-.352 1.524-.012.023.023.094 0 .117s.012 0 0 0h-3.518c-.012 0-.106.012-.117 0s-.012-.094 0-.117c.151-.756.328-1.447.469-2.111.059-.279.059-.524.117-.821s.176-.553.234-.821.07-.589.117-.821.094-.435.117-.586a5.5 5.5 0 0 0 .117-1.055 2.408 2.408 0 0 0-.117-.7c-.059-.175-.036-.277-.117-.352a2.929 2.929 0 0 0-.235-.234c-.07-.047-.2-.088-.234-.117s-.047-.036 0-.117a1.623 1.623 0 0 1 .352-.469 3.369 3.369 0 0 1 .586-.352 3.825 3.825 0 0 1 .7-.352 2.3 2.3 0 0 1 .7-.117 2.252 2.252 0 0 1 1.524.469 1.9 1.9 0 0 1 .469 1.407 4.322 4.322 0 0 1 1.29-1.29 2.274 2.274 0 0 1 1.296-.577z" class="cls-4" data-name="Path 64" transform="translate(-1353.273 -432.246)"/>
                <path id="Path_65" d="M1554.045 441.626a6.57 6.57 0 0 0-.117 1.173 2.409 2.409 0 0 0 .117.7c.057.175.035.277.117.352s.171.189.235.234a1.084 1.084 0 0 1 .117.117c.035.029.047.036 0 .117a1.719 1.719 0 0 1-.352.469 2.162 2.162 0 0 1-.469.352 3.755 3.755 0 0 1-.7.352 3.1 3.1 0 0 1-.821.117 1.943 1.943 0 0 1-1.407-.586 1.814 1.814 0 0 1-.586-1.407 5.934 5.934 0 0 1-1.407 1.407 2.6 2.6 0 0 1-1.642.469 2.3 2.3 0 0 1-1.407-.352 3.212 3.212 0 0 1-.938-1.173 4.514 4.514 0 0 1-.352-1.524 5.821 5.821 0 0 1 .117-1.642 7.505 7.505 0 0 1 .469-1.759 6.119 6.119 0 0 1 .938-1.524 4.655 4.655 0 0 1 1.29-1.055 3.507 3.507 0 0 1 1.642-.469 2.063 2.063 0 0 1 1.407.469 2.955 2.955 0 0 1 .938 1.173c.023-.186-.029-.324 0-.469s.094-.247.117-.352a3.5 3.5 0 0 0 0-.352c0-.023.082-.082.117-.117.012-.012-.023 0 0 0h3.518c.012 0-.012-.012 0 0s0 .082 0 .117c-.163.757-.223 1.435-.352 2.111-.116.583-.241 1.188-.352 1.759s-.182.991-.237 1.293zm-5.045 1.525a1.113 1.113 0 0 0 .586-.235 1.622 1.622 0 0 0 .469-.469 3.1 3.1 0 0 0 .469-.7 5.752 5.752 0 0 0 .234-.938 4.656 4.656 0 0 0 0-.938 3.068 3.068 0 0 0-.117-.821c-.07-.216-.089-.347-.234-.469a1 1 0 0 0-.586-.235 1.113 1.113 0 0 0-.586.235 1.622 1.622 0 0 0-.469.469 3.666 3.666 0 0 0-.352.821 6.115 6.115 0 0 0-.352.938 4.558 4.558 0 0 0 0 .938 2.252 2.252 0 0 0 .117.7c.07.216.089.347.234.469a1 1 0 0 0 .587.235z" class="cls-4" data-name="Path 65" transform="translate(-1450.336 -432.246)"/>
                <path id="Path_66" d="M1636.981 407.076c0-.012-.035-.082 0-.117.012-.012-.024 0 0 0h3.518c.012 0 .105-.012.117 0s.012.094 0 .117c-.257 1.455-.494 2.752-.7 3.987-.094.524-.258 1.119-.352 1.642s-.159.959-.234 1.407-.17.841-.235 1.173-.094.552-.117.7a6.557 6.557 0 0 0-.117 1.173 2.4 2.4 0 0 0 .117.7.8.8 0 0 0 .235.352 2.608 2.608 0 0 0 .234.234c.07.047.082.088.117.117s.035.036 0 .117a1.356 1.356 0 0 1-.352.469 9.6 9.6 0 0 1-1.29.7 3.212 3.212 0 0 1-.821.117 1.978 1.978 0 0 1-1.642-.7 2.451 2.451 0 0 1-.352-1.993 3.419 3.419 0 0 0 .117-.469c.053-.3.152-.689.234-1.173s.123-1.031.234-1.642.246-1.248.352-1.876c.256-1.483.6-3.15.937-5.035z" class="cls-4" data-name="Path 66" transform="translate(-1530.341 -406.607)"/>
            </g>
        </g>
    </g>
</svg>
